<svg width="500" height="500" viewBox="0 0 500 500" fill="none" xmlns="http://www.w3.org/2000/svg">
<path d="M500 382.4H0V382.65H500V382.4Z" fill="#EBEBEB"/>
<path d="M449.9 398.49H416.78V398.74H449.9V398.49Z" fill="#EBEBEB"/>
<path d="M331.22 401.21H322.53V401.46H331.22V401.21Z" fill="#EBEBEB"/>
<path d="M415.78 389.21H396.59V389.46H415.78V389.21Z" fill="#EBEBEB"/>
<path d="M95.65 390.89H52.46V391.14H95.65V390.89Z" fill="#EBEBEB"/>
<path d="M110.89 390.89H104.56V391.14H110.89V390.89Z" fill="#EBEBEB"/>
<path d="M225.15 395.11H131.47V395.36H225.15V395.11Z" fill="#EBEBEB"/>
<path d="M237 337.8H43.91C42.3973 337.797 40.9475 337.195 39.8788 336.124C38.8102 335.053 38.21 333.603 38.21 332.09V60.66C38.2231 59.156 38.8292 57.718 39.8964 56.6582C40.9637 55.5985 42.4059 55.0026 43.91 55H237C238.514 55 239.967 55.6016 241.038 56.6724C242.108 57.7433 242.71 59.1956 242.71 60.71V332.09C242.71 333.604 242.108 335.057 241.038 336.128C239.967 337.198 238.514 337.8 237 337.8ZM43.91 55.2C42.4636 55.2026 41.0774 55.7791 40.0556 56.8027C39.0338 57.8264 38.46 59.2136 38.46 60.66V332.09C38.46 333.536 39.0338 334.924 40.0556 335.947C41.0774 336.971 42.4636 337.547 43.91 337.55H237C238.447 337.547 239.834 336.971 240.858 335.948C241.881 334.924 242.457 333.537 242.46 332.09V60.66C242.457 59.2127 241.881 57.8255 240.858 56.8021C239.834 55.7787 238.447 55.2026 237 55.2H43.91Z" fill="#EBEBEB"/>
<path d="M453.31 337.8H260.21C258.696 337.797 257.246 337.195 256.175 336.125C255.105 335.054 254.503 333.604 254.5 332.09V60.66C254.516 59.1551 255.124 57.7171 256.193 56.6576C257.262 55.5981 258.705 55.0025 260.21 55H453.31C454.812 55.0052 456.252 55.6022 457.317 56.6617C458.382 57.7212 458.987 59.1578 459 60.66V332.09C459 333.601 458.401 335.05 457.335 336.121C456.268 337.191 454.821 337.795 453.31 337.8ZM260.21 55.2C258.763 55.2026 257.375 55.7787 256.352 56.8021C255.329 57.8255 254.753 59.2127 254.75 60.66V332.09C254.753 333.537 255.329 334.924 256.352 335.948C257.375 336.971 258.763 337.547 260.21 337.55H453.31C454.757 337.547 456.145 336.971 457.168 335.948C458.191 334.924 458.767 333.537 458.77 332.09V60.66C458.767 59.2127 458.191 57.8255 457.168 56.8021C456.145 55.7787 454.757 55.2026 453.31 55.2H260.21Z" fill="#EBEBEB"/>
<path d="M441.86 381.13V331.81H419.1V286.08H415.89V312.3H407.13V305.05H391.38V279.95H388.46V249.27H386.12V279.39H380.58V324.01H370.07V279.39H351.11V317.12H331.2V271.39H327.99V297.6H319.23V290.35H303.48V265.25H300.56V234.58H298.22V264.7H292.68V309.31H282.18V264.7H263.21V307.86H250.42V282.76H247.5V252.08H245.17V282.2H239.62V326.82H229.12V282.2H210.15V326.82H200.81V331.81H184.46V286.08H181.25V312.3H172.49V305.05H156.74V279.95H153.82V249.27H151.48V279.39H146.4V276.88H127.43V279.39H116.92V276.88H111.38V246.76H109.05V277.44H106.13V302.53H90.37V309.78H81.62V283.57H78.41V329.3H55.65V381.13H441.86Z" fill="#EBEBEB"/>
<path d="M148.532 151.662C162.712 145.789 169.445 129.532 163.572 115.353C157.698 101.173 141.442 94.4395 127.262 100.313C113.083 106.186 106.349 122.443 112.223 136.622C118.096 150.802 134.352 157.536 148.532 151.662Z" fill="#FAFAFA"/>
<path d="M123.49 125.68C123.489 124.927 123.312 124.185 122.973 123.513C122.635 122.84 122.144 122.256 121.54 121.807C120.936 121.357 120.236 121.055 119.495 120.923C118.753 120.792 117.992 120.835 117.27 121.05C117.486 119.597 117.386 118.114 116.976 116.703C116.566 115.292 115.857 113.986 114.896 112.874C113.935 111.762 112.746 110.871 111.409 110.261C110.072 109.651 108.619 109.337 107.15 109.34C106.519 109.339 105.889 109.399 105.27 109.52C104.264 107.864 102.748 106.58 100.949 105.86C99.1507 105.14 97.1669 105.024 95.2966 105.53C93.4263 106.035 91.7708 107.134 90.5793 108.662C89.3878 110.19 88.7248 112.063 88.69 114H88.54C86.3547 114 84.2588 114.868 82.7135 116.413C81.1682 117.959 80.3 120.055 80.3 122.24C80.3 124.425 81.1682 126.521 82.7135 128.067C84.2588 129.612 86.3547 130.48 88.54 130.48H118.79C120.044 130.449 121.236 129.93 122.114 129.034C122.992 128.137 123.485 126.934 123.49 125.68Z" fill="#F0F0F0"/>
<path d="M427.78 192.61C427.779 191.857 427.602 191.115 427.263 190.443C426.925 189.77 426.434 189.186 425.83 188.737C425.226 188.287 424.526 187.985 423.784 187.853C423.043 187.722 422.282 187.765 421.56 187.98C421.776 186.527 421.676 185.044 421.266 183.633C420.856 182.222 420.146 180.916 419.186 179.804C418.225 178.692 417.036 177.801 415.699 177.191C414.362 176.581 412.909 176.267 411.44 176.27C410.806 176.271 410.174 176.328 409.55 176.44C408.535 174.793 407.013 173.519 405.212 172.811C403.412 172.102 401.43 171.997 399.564 172.511C397.699 173.025 396.051 174.131 394.867 175.661C393.683 177.192 393.028 179.065 393 181H392.85C390.665 181 388.569 181.868 387.023 183.413C385.478 184.959 384.61 187.055 384.61 189.24C384.61 191.425 385.478 193.521 387.023 195.067C388.569 196.612 390.665 197.48 392.85 197.48H423.1C424.363 197.443 425.56 196.913 426.436 196.002C427.311 195.091 427.794 193.873 427.78 192.61Z" fill="#F0F0F0"/>
<path d="M284.71 119.25C284.705 118.057 284.981 116.879 285.514 115.812C286.048 114.745 286.825 113.818 287.782 113.106C288.739 112.393 289.85 111.916 291.026 111.712C292.202 111.508 293.409 111.582 294.55 111.93C294.438 111.152 294.381 110.366 294.38 109.58C294.377 107.202 294.899 104.852 295.908 102.699C296.918 100.546 298.39 98.6421 300.22 97.1234C302.05 95.6047 304.193 94.5086 306.495 93.9134C308.798 93.3182 311.203 93.2385 313.54 93.68C315.132 91.0538 317.536 89.0174 320.389 87.8787C323.241 86.74 326.387 86.561 329.35 87.3687C332.313 88.1765 334.933 89.927 336.813 92.3556C338.693 94.7843 339.731 97.759 339.77 100.83H340C343.457 100.83 346.773 102.203 349.217 104.648C351.662 107.092 353.035 110.408 353.035 113.865C353.035 117.322 351.662 120.638 349.217 123.082C346.773 125.527 343.457 126.9 340 126.9H292.14C290.149 126.845 288.257 126.015 286.87 124.586C285.482 123.157 284.707 121.242 284.71 119.25Z" fill="#F0F0F0"/>
<path d="M143.48 202.47C143.478 201.036 143.813 199.621 144.456 198.339C145.099 197.057 146.033 195.943 147.184 195.087C148.335 194.231 149.67 193.656 151.083 193.408C152.495 193.16 153.947 193.246 155.32 193.66C155.179 192.727 155.109 191.784 155.11 190.84C155.11 185.674 157.162 180.719 160.816 177.066C164.469 173.412 169.424 171.36 174.59 171.36C175.791 171.363 176.989 171.473 178.17 171.69C180.078 168.515 182.971 166.051 186.409 164.671C189.846 163.291 193.64 163.072 197.214 164.047C200.787 165.021 203.945 167.136 206.206 170.07C208.467 173.004 209.708 176.596 209.74 180.3H210C212.093 180.247 214.176 180.614 216.125 181.378C218.074 182.143 219.851 183.29 221.35 184.751C222.849 186.213 224.04 187.96 224.854 189.889C225.667 191.819 226.086 193.891 226.086 195.985C226.086 198.079 225.667 200.151 224.854 202.081C224.04 204.01 222.849 205.757 221.35 207.219C219.851 208.68 218.074 209.827 216.125 210.592C214.176 211.356 212.093 211.723 210 211.67H152.4C150.008 211.6 147.738 210.599 146.072 208.881C144.406 207.163 143.476 204.863 143.48 202.47Z" fill="#F0F0F0"/>
<path d="M184.1 140.15C184.1 139.354 183.784 138.591 183.221 138.029C182.659 137.466 181.896 137.15 181.1 137.15C180.808 137.147 180.518 137.191 180.24 137.28C180.284 136.972 180.307 136.661 180.31 136.35C180.31 134.663 179.64 133.046 178.447 131.853C177.254 130.66 175.637 129.99 173.95 129.99C173.557 129.991 173.166 130.028 172.78 130.1C172.153 129.069 171.208 128.27 170.087 127.824C168.967 127.377 167.731 127.307 166.567 127.625C165.403 127.942 164.374 128.629 163.635 129.582C162.896 130.536 162.487 131.704 162.47 132.91H162.38C161.022 132.91 159.72 133.449 158.76 134.41C157.799 135.37 157.26 136.672 157.26 138.03C157.26 139.388 157.799 140.69 158.76 141.65C159.72 142.611 161.022 143.15 162.38 143.15H181.19C181.97 143.127 182.71 142.8 183.253 142.24C183.797 141.68 184.1 140.93 184.1 140.15Z" fill="#F0F0F0"/>
<path d="M74.72 231.35C74.72 230.554 75.036 229.791 75.5986 229.229C76.1613 228.666 76.9243 228.35 77.72 228.35C78.0142 228.349 78.307 228.39 78.59 228.47C78.541 228.166 78.5176 227.858 78.52 227.55C78.52 226.715 78.6845 225.888 79.0041 225.116C79.3237 224.345 79.7922 223.643 80.3828 223.053C80.9733 222.462 81.6745 221.994 82.4461 221.674C83.2177 221.355 84.0448 221.19 84.88 221.19C85.2725 221.191 85.6641 221.228 86.05 221.3C86.6768 220.269 87.6218 219.47 88.7425 219.024C89.8632 218.577 91.0987 218.507 92.2626 218.825C93.4265 219.142 94.4556 219.829 95.1948 220.782C95.9339 221.736 96.3428 222.904 96.36 224.11H96.45C97.8079 224.11 99.1102 224.649 100.07 225.61C101.031 226.57 101.57 227.872 101.57 229.23C101.57 230.588 101.031 231.89 100.07 232.85C99.1102 233.811 97.8079 234.35 96.45 234.35H77.64C76.8583 234.329 76.1156 234.004 75.5702 233.444C75.0248 232.883 74.7197 232.132 74.72 231.35Z" fill="#F0F0F0"/>
<path d="M356.21 241.15C356.21 240.354 356.526 239.591 357.089 239.029C357.651 238.466 358.414 238.15 359.21 238.15C359.504 238.149 359.797 238.19 360.08 238.27C360.031 237.966 360.008 237.658 360.01 237.35C360.01 235.663 360.68 234.046 361.873 232.853C363.066 231.66 364.683 230.99 366.37 230.99C366.762 230.991 367.154 231.028 367.54 231.1C368.167 230.069 369.112 229.27 370.232 228.824C371.353 228.377 372.589 228.307 373.753 228.625C374.917 228.942 375.946 229.629 376.685 230.582C377.424 231.536 377.833 232.704 377.85 233.91H377.94C379.298 233.91 380.6 234.449 381.56 235.41C382.521 236.37 383.06 237.672 383.06 239.03C383.06 240.388 382.521 241.69 381.56 242.65C380.6 243.611 379.298 244.15 377.94 244.15H359.13C358.348 244.129 357.606 243.804 357.06 243.244C356.515 242.683 356.21 241.932 356.21 241.15Z" fill="#F0F0F0"/>
<path d="M250 427.56C357.082 427.56 443.89 422.492 443.89 416.24C443.89 409.988 357.082 404.92 250 404.92C142.917 404.92 56.11 409.988 56.11 416.24C56.11 422.492 142.917 427.56 250 427.56Z" fill="#F5F5F5"/>
<path d="M388.8 121.03L346.05 186.12L344.17 188.99L340.45 190.71L208.13 252.2L221.2 296.99L224.19 307.23L213.83 315.79L124.56 402.54H50.6899L184.25 291.62L176.16 247.58L173.96 235.59L184.3 230.83L325.32 165.9L371.25 109.08L358.93 106.64L397.66 90.57L395.67 132.46L388.8 121.03Z" fill="#244278"/>
<path opacity="0.6" d="M388.8 121.03L346.05 186.12L344.17 188.99L340.45 190.71L208.13 252.2L221.2 296.99L224.19 307.23L213.83 315.79L124.56 402.54H50.6899L184.25 291.62L176.16 247.58L173.96 235.59L184.3 230.83L325.32 165.9L371.25 109.08L358.93 106.64L397.66 90.57L395.67 132.46L388.8 121.03Z" fill="#FAFAFA"/>
<path d="M366.45 398.49H295.65C294.954 398.49 294.39 399.054 294.39 399.75V415.89C294.39 416.586 294.954 417.15 295.65 417.15H366.45C367.146 417.15 367.71 416.586 367.71 415.89V399.75C367.71 399.054 367.146 398.49 366.45 398.49Z" fill="#407BFF"/>
<path opacity="0.2" d="M300.57 399.57H297.67V416.24H300.57V399.57Z" fill="black"/>
<path opacity="0.2" d="M307.16 399.49H305.05V416.16H307.16V399.49Z" fill="black"/>
<path opacity="0.2" d="M313.23 399.57H312.17V416.24H313.23V399.57Z" fill="black"/>
<path opacity="0.2" d="M321.41 399.49H320.88V416.16H321.41V399.49Z" fill="black"/>
<path opacity="0.2" d="M361.53 416.16H364.43V399.49H361.53V416.16Z" fill="black"/>
<path opacity="0.2" d="M354.94 416.24H357.05V399.57H354.94V416.24Z" fill="black"/>
<path opacity="0.2" d="M348.88 416.16H349.93V399.49H348.88V416.16Z" fill="black"/>
<path opacity="0.2" d="M340.69 416.24H341.22V399.57H340.69V416.24Z" fill="black"/>
<path opacity="0.2" d="M330.92 416.24H331.18V399.57H330.92V416.24Z" fill="black"/>
<path opacity="0.2" d="M365.75 401.33H296.5C296.267 401.33 296.043 401.237 295.878 401.072C295.713 400.907 295.62 400.683 295.62 400.45C295.623 400.217 295.716 399.995 295.881 399.831C296.045 399.666 296.267 399.573 296.5 399.57H365.75C365.983 399.57 366.207 399.663 366.372 399.828C366.537 399.993 366.63 400.217 366.63 400.45C366.631 400.566 366.609 400.681 366.566 400.788C366.522 400.896 366.457 400.993 366.375 401.075C366.293 401.157 366.196 401.222 366.088 401.266C365.981 401.309 365.866 401.331 365.75 401.33Z" fill="white"/>
<path d="M368.45 379.88H297.65C296.954 379.88 296.39 380.444 296.39 381.14V397.28C296.39 397.976 296.954 398.54 297.65 398.54H368.45C369.146 398.54 369.71 397.976 369.71 397.28V381.14C369.71 380.444 369.146 379.88 368.45 379.88Z" fill="#407BFF"/>
<path opacity="0.2" d="M302.57 380.96H299.67V397.63H302.57V380.96Z" fill="black"/>
<path opacity="0.2" d="M309.17 380.88H307.06V397.55H309.17V380.88Z" fill="black"/>
<path opacity="0.2" d="M315.23 380.96H314.18V397.63H315.23V380.96Z" fill="black"/>
<path opacity="0.2" d="M323.41 380.88H322.88V397.55H323.41V380.88Z" fill="black"/>
<path opacity="0.2" d="M363.54 397.54H366.44V380.87H363.54V397.54Z" fill="black"/>
<path opacity="0.2" d="M356.94 397.62H359.05V380.95H356.94V397.62Z" fill="black"/>
<path opacity="0.2" d="M350.87 397.54H351.93V380.87H350.87V397.54Z" fill="black"/>
<path opacity="0.2" d="M342.69 397.62H343.22V380.95H342.69V397.62Z" fill="black"/>
<path opacity="0.2" d="M332.92 397.62H333.18V380.95H332.92V397.62Z" fill="black"/>
<path opacity="0.2" d="M367.75 382.72H298.5C298.267 382.717 298.045 382.624 297.881 382.459C297.716 382.295 297.623 382.073 297.62 381.84C297.62 381.607 297.713 381.383 297.878 381.218C298.043 381.053 298.267 380.96 298.5 380.96H367.75C367.866 380.959 367.981 380.981 368.088 381.024C368.196 381.068 368.293 381.133 368.375 381.215C368.457 381.297 368.522 381.394 368.566 381.502C368.609 381.609 368.631 381.724 368.63 381.84C368.63 382.073 368.537 382.297 368.372 382.462C368.207 382.627 367.983 382.72 367.75 382.72Z" fill="white"/>
<path d="M368.45 361.27H297.65C296.954 361.27 296.39 361.834 296.39 362.53V378.67C296.39 379.366 296.954 379.93 297.65 379.93H368.45C369.146 379.93 369.71 379.366 369.71 378.67V362.53C369.71 361.834 369.146 361.27 368.45 361.27Z" fill="#407BFF"/>
<path opacity="0.2" d="M302.57 362.34H299.67V379.01H302.57V362.34Z" fill="black"/>
<path opacity="0.2" d="M309.17 362.26H307.06V378.93H309.17V362.26Z" fill="black"/>
<path opacity="0.2" d="M315.23 362.34H314.18V379.01H315.23V362.34Z" fill="black"/>
<path opacity="0.2" d="M323.41 362.26H322.88V378.93H323.41V362.26Z" fill="black"/>
<path opacity="0.2" d="M363.54 378.93H366.44V362.26H363.54V378.93Z" fill="black"/>
<path opacity="0.2" d="M356.94 379.01H359.05V362.34H356.94V379.01Z" fill="black"/>
<path opacity="0.2" d="M350.87 378.93H351.93V362.26H350.87V378.93Z" fill="black"/>
<path opacity="0.2" d="M342.69 379.01H343.22V362.34H342.69V379.01Z" fill="black"/>
<path opacity="0.2" d="M332.92 379.01H333.18V362.34H332.92V379.01Z" fill="black"/>
<path opacity="0.2" d="M367.75 364.1H298.5C298.267 364.1 298.043 364.007 297.878 363.842C297.713 363.677 297.62 363.453 297.62 363.22C297.623 362.987 297.716 362.765 297.881 362.601C298.045 362.436 298.267 362.343 298.5 362.34H367.75C367.983 362.34 368.207 362.433 368.372 362.598C368.537 362.763 368.63 362.987 368.63 363.22C368.631 363.336 368.609 363.451 368.566 363.558C368.522 363.666 368.457 363.763 368.375 363.845C368.293 363.927 368.196 363.992 368.088 364.036C367.981 364.079 367.866 364.101 367.75 364.1Z" fill="white"/>
<path d="M366.45 342.65H295.65C294.954 342.65 294.39 343.214 294.39 343.91V360.05C294.39 360.746 294.954 361.31 295.65 361.31H366.45C367.146 361.31 367.71 360.746 367.71 360.05V343.91C367.71 343.214 367.146 342.65 366.45 342.65Z" fill="#407BFF"/>
<path opacity="0.2" d="M300.57 343.73H297.67V360.4H300.57V343.73Z" fill="black"/>
<path opacity="0.2" d="M307.16 343.65H305.05V360.32H307.16V343.65Z" fill="black"/>
<path opacity="0.2" d="M313.23 343.73H312.17V360.4H313.23V343.73Z" fill="black"/>
<path opacity="0.2" d="M321.41 343.65H320.88V360.32H321.41V343.65Z" fill="black"/>
<path opacity="0.2" d="M361.53 360.31H364.43V343.64H361.53V360.31Z" fill="black"/>
<path opacity="0.2" d="M354.94 360.39H357.05V343.72H354.94V360.39Z" fill="black"/>
<path opacity="0.2" d="M348.88 360.31H349.93V343.64H348.88V360.31Z" fill="black"/>
<path opacity="0.2" d="M340.69 360.39H341.22V343.72H340.69V360.39Z" fill="black"/>
<path opacity="0.2" d="M330.92 360.39H331.18V343.72H330.92V360.39Z" fill="black"/>
<path opacity="0.2" d="M365.75 345.49H296.5C296.267 345.487 296.045 345.394 295.881 345.229C295.716 345.065 295.623 344.843 295.62 344.61C295.62 344.377 295.713 344.153 295.878 343.988C296.043 343.823 296.267 343.73 296.5 343.73H365.75C365.866 343.729 365.981 343.75 366.088 343.794C366.196 343.838 366.293 343.903 366.375 343.985C366.457 344.067 366.522 344.164 366.566 344.272C366.609 344.379 366.631 344.494 366.63 344.61C366.63 344.843 366.537 345.067 366.372 345.232C366.207 345.397 365.983 345.49 365.75 345.49Z" fill="white"/>
<path d="M363.45 324.04H292.65C291.954 324.04 291.39 324.604 291.39 325.3V341.44C291.39 342.136 291.954 342.7 292.65 342.7H363.45C364.146 342.7 364.71 342.136 364.71 341.44V325.3C364.71 324.604 364.146 324.04 363.45 324.04Z" fill="#407BFF"/>
<path opacity="0.2" d="M297.57 325.11H294.67V341.78H297.57V325.11Z" fill="black"/>
<path opacity="0.2" d="M304.16 325.03H302.05V341.7H304.16V325.03Z" fill="black"/>
<path opacity="0.2" d="M310.22 325.11H309.17V341.78H310.22V325.11Z" fill="black"/>
<path opacity="0.2" d="M318.41 325.03H317.88V341.7H318.41V325.03Z" fill="black"/>
<path opacity="0.2" d="M358.53 341.7H361.43V325.03H358.53V341.7Z" fill="black"/>
<path opacity="0.2" d="M351.93 341.78H354.04V325.11H351.93V341.78Z" fill="black"/>
<path opacity="0.2" d="M345.88 341.7H346.93V325.03H345.88V341.7Z" fill="black"/>
<path opacity="0.2" d="M337.7 341.78H338.23V325.11H337.7V341.78Z" fill="black"/>
<path opacity="0.2" d="M327.92 341.78H328.18V325.11H327.92V341.78Z" fill="black"/>
<path opacity="0.2" d="M362.75 326.87H293.5C293.384 326.871 293.269 326.85 293.162 326.806C293.054 326.762 292.957 326.697 292.875 326.615C292.793 326.533 292.728 326.436 292.684 326.328C292.641 326.221 292.619 326.106 292.62 325.99C292.62 325.757 292.713 325.533 292.878 325.368C293.043 325.203 293.267 325.11 293.5 325.11H362.75C362.983 325.11 363.207 325.203 363.372 325.368C363.537 325.533 363.63 325.757 363.63 325.99C363.631 326.106 363.609 326.221 363.566 326.328C363.522 326.436 363.457 326.533 363.375 326.615C363.293 326.697 363.196 326.762 363.088 326.806C362.981 326.85 362.866 326.871 362.75 326.87Z" fill="white"/>
<path d="M366.45 305.42H295.65C294.954 305.42 294.39 305.984 294.39 306.68V322.82C294.39 323.516 294.954 324.08 295.65 324.08H366.45C367.146 324.08 367.71 323.516 367.71 322.82V306.68C367.71 305.984 367.146 305.42 366.45 305.42Z" fill="#407BFF"/>
<path opacity="0.2" d="M300.57 306.5H297.67V323.17H300.57V306.5Z" fill="black"/>
<path opacity="0.2" d="M307.16 306.42H305.05V323.09H307.16V306.42Z" fill="black"/>
<path opacity="0.2" d="M313.23 306.5H312.17V323.17H313.23V306.5Z" fill="black"/>
<path opacity="0.2" d="M321.41 306.42H320.88V323.09H321.41V306.42Z" fill="black"/>
<path opacity="0.2" d="M361.53 323.08H364.43V306.41H361.53V323.08Z" fill="black"/>
<path opacity="0.2" d="M354.94 323.16H357.05V306.49H354.94V323.16Z" fill="black"/>
<path opacity="0.2" d="M348.88 323.08H349.93V306.41H348.88V323.08Z" fill="black"/>
<path opacity="0.2" d="M340.69 323.16H341.22V306.49H340.69V323.16Z" fill="black"/>
<path opacity="0.2" d="M330.92 323.16H331.18V306.49H330.92V323.16Z" fill="black"/>
<path opacity="0.2" d="M365.75 308.26H296.5C296.267 308.26 296.043 308.167 295.878 308.002C295.713 307.837 295.62 307.613 295.62 307.38C295.62 307.147 295.713 306.923 295.878 306.758C296.043 306.593 296.267 306.5 296.5 306.5H365.75C365.866 306.499 365.981 306.521 366.088 306.564C366.196 306.608 366.293 306.673 366.375 306.755C366.457 306.837 366.522 306.934 366.566 307.042C366.609 307.149 366.631 307.264 366.63 307.38C366.631 307.496 366.609 307.611 366.566 307.718C366.522 307.826 366.457 307.923 366.375 308.005C366.293 308.087 366.196 308.152 366.088 308.196C365.981 308.239 365.866 308.261 365.75 308.26Z" fill="white"/>
<path d="M366.45 286.81H295.65C294.954 286.81 294.39 287.374 294.39 288.07V304.21C294.39 304.906 294.954 305.47 295.65 305.47H366.45C367.146 305.47 367.71 304.906 367.71 304.21V288.07C367.71 287.374 367.146 286.81 366.45 286.81Z" fill="#407BFF"/>
<path opacity="0.2" d="M300.57 287.88H297.67V304.55H300.57V287.88Z" fill="black"/>
<path opacity="0.2" d="M307.16 287.8H305.05V304.47H307.16V287.8Z" fill="black"/>
<path opacity="0.2" d="M313.23 287.88H312.17V304.55H313.23V287.88Z" fill="black"/>
<path opacity="0.2" d="M321.41 287.8H320.88V304.47H321.41V287.8Z" fill="black"/>
<path opacity="0.2" d="M361.53 304.47H364.43V287.8H361.53V304.47Z" fill="black"/>
<path opacity="0.2" d="M354.94 304.55H357.05V287.88H354.94V304.55Z" fill="black"/>
<path opacity="0.2" d="M348.88 304.47H349.93V287.8H348.88V304.47Z" fill="black"/>
<path opacity="0.2" d="M340.69 304.55H341.22V287.88H340.69V304.55Z" fill="black"/>
<path opacity="0.2" d="M330.92 304.55H331.18V287.88H330.92V304.55Z" fill="black"/>
<path opacity="0.2" d="M365.75 289.65H296.5C296.266 289.647 296.042 289.552 295.877 289.386C295.712 289.219 295.62 288.994 295.62 288.76C295.623 288.527 295.716 288.305 295.881 288.141C296.045 287.976 296.267 287.883 296.5 287.88H365.75C365.983 287.88 366.207 287.973 366.372 288.138C366.537 288.303 366.63 288.527 366.63 288.76C366.631 288.876 366.61 288.992 366.566 289.1C366.522 289.208 366.458 289.306 366.376 289.389C366.294 289.472 366.197 289.537 366.089 289.582C365.982 289.627 365.866 289.65 365.75 289.65Z" fill="white"/>
<path d="M369.45 268.19H298.65C297.954 268.19 297.39 268.754 297.39 269.45V285.59C297.39 286.286 297.954 286.85 298.65 286.85H369.45C370.146 286.85 370.71 286.286 370.71 285.59V269.45C370.71 268.754 370.146 268.19 369.45 268.19Z" fill="#407BFF"/>
<path opacity="0.2" d="M303.57 269.27H300.67V285.94H303.57V269.27Z" fill="black"/>
<path opacity="0.2" d="M310.17 269.19H308.06V285.86H310.17V269.19Z" fill="black"/>
<path opacity="0.2" d="M316.24 269.27H315.18V285.94H316.24V269.27Z" fill="black"/>
<path opacity="0.2" d="M324.41 269.19H323.88V285.86H324.41V269.19Z" fill="black"/>
<path opacity="0.2" d="M364.54 285.85H367.44V269.18H364.54V285.85Z" fill="black"/>
<path opacity="0.2" d="M357.94 285.94H360.05V269.27H357.94V285.94Z" fill="black"/>
<path opacity="0.2" d="M351.88 285.85H352.93V269.18H351.88V285.85Z" fill="black"/>
<path opacity="0.2" d="M343.69 285.94H344.22V269.27H343.69V285.94Z" fill="black"/>
<path opacity="0.2" d="M333.93 285.94H334.19V269.27H333.93V285.94Z" fill="black"/>
<path opacity="0.2" d="M368.75 271H299.51C299.394 271.001 299.278 270.98 299.17 270.936C299.062 270.892 298.964 270.828 298.881 270.746C298.799 270.664 298.733 270.566 298.688 270.459C298.643 270.352 298.62 270.236 298.62 270.12C298.62 270.004 298.643 269.888 298.688 269.781C298.733 269.673 298.799 269.576 298.881 269.494C298.964 269.412 299.062 269.348 299.17 269.304C299.278 269.26 299.394 269.239 299.51 269.24H368.75C368.866 269.239 368.982 269.26 369.09 269.304C369.198 269.348 369.296 269.412 369.379 269.494C369.462 269.576 369.527 269.673 369.572 269.781C369.617 269.888 369.64 270.004 369.64 270.12C369.64 270.236 369.617 270.352 369.572 270.459C369.527 270.566 369.462 270.664 369.379 270.746C369.296 270.828 369.198 270.892 369.09 270.936C368.982 270.98 368.866 271.001 368.75 271Z" fill="white"/>
<path d="M364.45 249.58H293.65C292.954 249.58 292.39 250.144 292.39 250.84V266.98C292.39 267.676 292.954 268.24 293.65 268.24H364.45C365.146 268.24 365.71 267.676 365.71 266.98V250.84C365.71 250.144 365.146 249.58 364.45 249.58Z" fill="#407BFF"/>
<path opacity="0.2" d="M298.57 250.66H295.67V267.33H298.57V250.66Z" fill="black"/>
<path opacity="0.2" d="M305.16 250.57H303.05V267.24H305.16V250.57Z" fill="black"/>
<path opacity="0.2" d="M311.22 250.66H310.17V267.33H311.22V250.66Z" fill="black"/>
<path opacity="0.2" d="M319.41 250.57H318.88V267.24H319.41V250.57Z" fill="black"/>
<path opacity="0.2" d="M359.53 267.24H362.43V250.57H359.53V267.24Z" fill="black"/>
<path opacity="0.2" d="M352.93 267.32H355.04V250.65H352.93V267.32Z" fill="black"/>
<path opacity="0.2" d="M346.88 267.24H347.93V250.57H346.88V267.24Z" fill="black"/>
<path opacity="0.2" d="M338.69 267.32H339.22V250.65H338.69V267.32Z" fill="black"/>
<path opacity="0.2" d="M328.92 267.32H329.18V250.65H328.92V267.32Z" fill="black"/>
<path opacity="0.2" d="M363.75 252.42H294.5C294.267 252.417 294.045 252.324 293.881 252.159C293.716 251.995 293.623 251.773 293.62 251.54C293.62 251.307 293.713 251.083 293.878 250.918C294.043 250.753 294.267 250.66 294.5 250.66H363.75C363.866 250.659 363.981 250.681 364.088 250.724C364.196 250.768 364.293 250.833 364.375 250.915C364.457 250.997 364.522 251.094 364.566 251.202C364.609 251.309 364.631 251.424 364.63 251.54C364.63 251.773 364.537 251.997 364.372 252.162C364.207 252.327 363.983 252.42 363.75 252.42Z" fill="white"/>
<path d="M362.45 230.96H291.65C290.954 230.96 290.39 231.524 290.39 232.22V248.36C290.39 249.056 290.954 249.62 291.65 249.62H362.45C363.146 249.62 363.71 249.056 363.71 248.36V232.22C363.71 231.524 363.146 230.96 362.45 230.96Z" fill="#407BFF"/>
<path opacity="0.2" d="M296.57 232.04H293.67V248.71H296.57V232.04Z" fill="black"/>
<path opacity="0.2" d="M303.16 231.96H301.05V248.63H303.16V231.96Z" fill="black"/>
<path opacity="0.2" d="M309.23 232.04H308.17V248.71H309.23V232.04Z" fill="black"/>
<path opacity="0.2" d="M317.41 231.96H316.88V248.63H317.41V231.96Z" fill="black"/>
<path opacity="0.2" d="M357.53 248.62H360.43V231.95H357.53V248.62Z" fill="black"/>
<path opacity="0.2" d="M350.93 248.71H353.04V232.04H350.93V248.71Z" fill="black"/>
<path opacity="0.2" d="M344.87 248.62H345.92V231.95H344.87V248.62Z" fill="black"/>
<path opacity="0.2" d="M336.7 248.71H337.23V232.04H336.7V248.71Z" fill="black"/>
<path opacity="0.2" d="M326.92 248.71H327.18V232.04H326.92V248.71Z" fill="black"/>
<path opacity="0.2" d="M361.75 233.8H292.5C292.384 233.801 292.269 233.779 292.162 233.736C292.054 233.692 291.957 233.627 291.875 233.545C291.793 233.463 291.728 233.366 291.684 233.258C291.641 233.151 291.619 233.036 291.62 232.92C291.619 232.804 291.641 232.689 291.684 232.582C291.728 232.474 291.793 232.377 291.875 232.295C291.957 232.213 292.054 232.148 292.162 232.104C292.269 232.06 292.384 232.039 292.5 232.04H361.75C361.866 232.039 361.981 232.06 362.088 232.104C362.196 232.148 362.293 232.213 362.375 232.295C362.457 232.377 362.522 232.474 362.566 232.582C362.609 232.689 362.631 232.804 362.63 232.92C362.631 233.036 362.609 233.151 362.566 233.258C362.522 233.366 362.457 233.463 362.375 233.545C362.293 233.627 362.196 233.692 362.088 233.736C361.981 233.779 361.866 233.801 361.75 233.8Z" fill="white"/>
<path d="M276.4 398.49H205.6C204.904 398.49 204.34 399.054 204.34 399.75V415.89C204.34 416.586 204.904 417.15 205.6 417.15H276.4C277.096 417.15 277.66 416.586 277.66 415.89V399.75C277.66 399.054 277.096 398.49 276.4 398.49Z" fill="#407BFF"/>
<path opacity="0.2" d="M210.51 399.57H207.61V416.24H210.51V399.57Z" fill="black"/>
<path opacity="0.2" d="M217.11 399.49H215V416.16H217.11V399.49Z" fill="black"/>
<path opacity="0.2" d="M223.17 399.57H222.12V416.24H223.17V399.57Z" fill="black"/>
<path opacity="0.2" d="M231.35 399.49H230.82V416.16H231.35V399.49Z" fill="black"/>
<path opacity="0.2" d="M271.48 416.16H274.38V399.49H271.48V416.16Z" fill="black"/>
<path opacity="0.2" d="M264.88 416.24H266.99V399.57H264.88V416.24Z" fill="black"/>
<path opacity="0.2" d="M258.82 416.16H259.87V399.49H258.82V416.16Z" fill="black"/>
<path opacity="0.2" d="M250.64 416.24H251.17V399.57H250.64V416.24Z" fill="black"/>
<path opacity="0.2" d="M240.87 416.24H241.13V399.57H240.87V416.24Z" fill="black"/>
<path opacity="0.2" d="M275.7 401.33H206.45C206.334 401.331 206.219 401.309 206.112 401.266C206.004 401.222 205.907 401.157 205.825 401.075C205.743 400.993 205.678 400.896 205.634 400.788C205.591 400.681 205.569 400.566 205.57 400.45C205.57 400.217 205.663 399.993 205.828 399.828C205.993 399.663 206.217 399.57 206.45 399.57H275.7C275.933 399.573 276.155 399.666 276.319 399.831C276.484 399.995 276.577 400.217 276.58 400.45C276.58 400.683 276.487 400.907 276.322 401.072C276.157 401.237 275.933 401.33 275.7 401.33Z" fill="white"/>
<path d="M273.39 379.88H202.59C201.894 379.88 201.33 380.444 201.33 381.14V397.28C201.33 397.976 201.894 398.54 202.59 398.54H273.39C274.086 398.54 274.65 397.976 274.65 397.28V381.14C274.65 380.444 274.086 379.88 273.39 379.88Z" fill="#407BFF"/>
<path opacity="0.2" d="M207.51 380.96H204.61V397.63H207.51V380.96Z" fill="black"/>
<path opacity="0.2" d="M214.11 380.88H212V397.55H214.11V380.88Z" fill="black"/>
<path opacity="0.2" d="M220.17 380.96H219.12V397.63H220.17V380.96Z" fill="black"/>
<path opacity="0.2" d="M228.35 380.88H227.82V397.55H228.35V380.88Z" fill="black"/>
<path opacity="0.2" d="M268.48 397.54H271.38V380.87H268.48V397.54Z" fill="black"/>
<path opacity="0.2" d="M261.88 397.62H263.99V380.95H261.88V397.62Z" fill="black"/>
<path opacity="0.2" d="M255.82 397.54H256.87V380.87H255.82V397.54Z" fill="black"/>
<path opacity="0.2" d="M247.63 397.62H248.16V380.95H247.63V397.62Z" fill="black"/>
<path opacity="0.2" d="M237.86 397.62H238.12V380.95H237.86V397.62Z" fill="black"/>
<path opacity="0.2" d="M272.69 382.72H203.44C203.207 382.717 202.985 382.624 202.821 382.459C202.656 382.295 202.563 382.073 202.56 381.84C202.56 381.607 202.653 381.383 202.818 381.218C202.983 381.053 203.207 380.96 203.44 380.96H272.69C272.806 380.959 272.921 380.981 273.028 381.024C273.136 381.068 273.233 381.133 273.315 381.215C273.397 381.297 273.462 381.394 273.506 381.502C273.549 381.609 273.571 381.724 273.57 381.84C273.57 382.073 273.477 382.297 273.312 382.462C273.147 382.627 272.923 382.72 272.69 382.72Z" fill="white"/>
<path d="M276.4 361.27H205.6C204.904 361.27 204.34 361.834 204.34 362.53V378.67C204.34 379.366 204.904 379.93 205.6 379.93H276.4C277.096 379.93 277.66 379.366 277.66 378.67V362.53C277.66 361.834 277.096 361.27 276.4 361.27Z" fill="#407BFF"/>
<path opacity="0.2" d="M210.51 362.34H207.61V379.01H210.51V362.34Z" fill="black"/>
<path opacity="0.2" d="M217.11 362.26H215V378.93H217.11V362.26Z" fill="black"/>
<path opacity="0.2" d="M223.17 362.34H222.12V379.01H223.17V362.34Z" fill="black"/>
<path opacity="0.2" d="M231.35 362.26H230.82V378.93H231.35V362.26Z" fill="black"/>
<path opacity="0.2" d="M271.48 378.93H274.38V362.26H271.48V378.93Z" fill="black"/>
<path opacity="0.2" d="M264.88 379.01H266.99V362.34H264.88V379.01Z" fill="black"/>
<path opacity="0.2" d="M258.82 378.93H259.87V362.26H258.82V378.93Z" fill="black"/>
<path opacity="0.2" d="M250.64 379.01H251.17V362.34H250.64V379.01Z" fill="black"/>
<path opacity="0.2" d="M240.87 379.01H241.13V362.34H240.87V379.01Z" fill="black"/>
<path opacity="0.2" d="M275.7 364.1H206.45C206.334 364.101 206.219 364.079 206.112 364.036C206.004 363.992 205.907 363.927 205.825 363.845C205.743 363.763 205.678 363.666 205.634 363.558C205.591 363.451 205.569 363.336 205.57 363.22C205.57 362.987 205.663 362.763 205.828 362.598C205.993 362.433 206.217 362.34 206.45 362.34H275.7C275.933 362.343 276.155 362.436 276.319 362.601C276.484 362.765 276.577 362.987 276.58 363.22C276.58 363.453 276.487 363.677 276.322 363.842C276.157 364.007 275.933 364.1 275.7 364.1Z" fill="white"/>
<path d="M274.39 342.65H203.59C202.894 342.65 202.33 343.214 202.33 343.91V360.05C202.33 360.746 202.894 361.31 203.59 361.31H274.39C275.086 361.31 275.65 360.746 275.65 360.05V343.91C275.65 343.214 275.086 342.65 274.39 342.65Z" fill="#407BFF"/>
<path opacity="0.2" d="M208.51 343.73H205.61V360.4H208.51V343.73Z" fill="black"/>
<path opacity="0.2" d="M215.11 343.65H213V360.32H215.11V343.65Z" fill="black"/>
<path opacity="0.2" d="M221.17 343.73H220.12V360.4H221.17V343.73Z" fill="black"/>
<path opacity="0.2" d="M229.35 343.65H228.82V360.32H229.35V343.65Z" fill="black"/>
<path opacity="0.2" d="M269.48 360.31H272.38V343.64H269.48V360.31Z" fill="black"/>
<path opacity="0.2" d="M262.88 360.39H264.99V343.72H262.88V360.39Z" fill="black"/>
<path opacity="0.2" d="M256.81 360.31H257.87V343.64H256.81V360.31Z" fill="black"/>
<path opacity="0.2" d="M248.63 360.39H249.16V343.72H248.63V360.39Z" fill="black"/>
<path opacity="0.2" d="M238.87 360.39H239.13V343.72H238.87V360.39Z" fill="black"/>
<path opacity="0.2" d="M273.69 345.49H204.45C204.216 345.49 203.991 345.398 203.824 345.233C203.658 345.068 203.563 344.844 203.56 344.61C203.56 344.494 203.583 344.378 203.628 344.271C203.673 344.163 203.738 344.066 203.821 343.984C203.904 343.902 204.002 343.838 204.11 343.794C204.218 343.75 204.334 343.729 204.45 343.73H273.69C273.806 343.729 273.922 343.75 274.03 343.794C274.138 343.838 274.236 343.902 274.319 343.984C274.402 344.066 274.467 344.163 274.512 344.271C274.557 344.378 274.58 344.494 274.58 344.61C274.577 344.844 274.482 345.068 274.316 345.233C274.149 345.398 273.924 345.49 273.69 345.49Z" fill="white"/>
<path d="M274.39 324.04H203.59C202.894 324.04 202.33 324.604 202.33 325.3V341.44C202.33 342.136 202.894 342.7 203.59 342.7H274.39C275.086 342.7 275.65 342.136 275.65 341.44V325.3C275.65 324.604 275.086 324.04 274.39 324.04Z" fill="#407BFF"/>
<path opacity="0.2" d="M208.51 325.11H205.61V341.78H208.51V325.11Z" fill="black"/>
<path opacity="0.2" d="M215.11 325.03H213V341.7H215.11V325.03Z" fill="black"/>
<path opacity="0.2" d="M221.17 325.11H220.12V341.78H221.17V325.11Z" fill="black"/>
<path opacity="0.2" d="M229.35 325.03H228.82V341.7H229.35V325.03Z" fill="black"/>
<path opacity="0.2" d="M269.48 341.7H272.38V325.03H269.48V341.7Z" fill="black"/>
<path opacity="0.2" d="M262.88 341.78H264.99V325.11H262.88V341.78Z" fill="black"/>
<path opacity="0.2" d="M256.81 341.7H257.87V325.03H256.81V341.7Z" fill="black"/>
<path opacity="0.2" d="M248.63 341.78H249.16V325.11H248.63V341.78Z" fill="black"/>
<path opacity="0.2" d="M238.87 341.78H239.13V325.11H238.87V341.78Z" fill="black"/>
<path opacity="0.2" d="M273.69 326.87H204.45C204.334 326.871 204.218 326.85 204.11 326.806C204.002 326.762 203.904 326.698 203.821 326.616C203.738 326.534 203.673 326.437 203.628 326.329C203.583 326.222 203.56 326.106 203.56 325.99C203.563 325.756 203.658 325.532 203.824 325.367C203.991 325.202 204.216 325.11 204.45 325.11H273.69C273.924 325.11 274.149 325.202 274.316 325.367C274.482 325.532 274.577 325.756 274.58 325.99C274.58 326.106 274.557 326.222 274.512 326.329C274.467 326.437 274.402 326.534 274.319 326.616C274.236 326.698 274.138 326.762 274.03 326.806C273.922 326.85 273.806 326.871 273.69 326.87Z" fill="white"/>
<path d="M274.39 305.42H203.59C202.894 305.42 202.33 305.984 202.33 306.68V322.82C202.33 323.516 202.894 324.08 203.59 324.08H274.39C275.086 324.08 275.65 323.516 275.65 322.82V306.68C275.65 305.984 275.086 305.42 274.39 305.42Z" fill="#407BFF"/>
<path opacity="0.2" d="M208.51 306.5H205.61V323.17H208.51V306.5Z" fill="black"/>
<path opacity="0.2" d="M215.11 306.42H213V323.09H215.11V306.42Z" fill="black"/>
<path opacity="0.2" d="M221.17 306.5H220.12V323.17H221.17V306.5Z" fill="black"/>
<path opacity="0.2" d="M229.35 306.42H228.82V323.09H229.35V306.42Z" fill="black"/>
<path opacity="0.2" d="M269.48 323.08H272.38V306.41H269.48V323.08Z" fill="black"/>
<path opacity="0.2" d="M262.88 323.16H264.99V306.49H262.88V323.16Z" fill="black"/>
<path opacity="0.2" d="M256.81 323.08H257.87V306.41H256.81V323.08Z" fill="black"/>
<path opacity="0.2" d="M248.63 323.16H249.16V306.49H248.63V323.16Z" fill="black"/>
<path opacity="0.2" d="M238.87 323.16H239.13V306.49H238.87V323.16Z" fill="black"/>
<path opacity="0.2" d="M273.69 308.26H204.45C204.334 308.261 204.218 308.24 204.11 308.196C204.002 308.152 203.904 308.088 203.821 308.006C203.738 307.924 203.673 307.827 203.628 307.719C203.583 307.612 203.56 307.496 203.56 307.38C203.56 307.264 203.583 307.148 203.628 307.041C203.673 306.933 203.738 306.836 203.821 306.754C203.904 306.672 204.002 306.608 204.11 306.564C204.218 306.52 204.334 306.499 204.45 306.5H273.69C273.806 306.499 273.922 306.52 274.03 306.564C274.138 306.608 274.236 306.672 274.319 306.754C274.402 306.836 274.467 306.933 274.512 307.041C274.557 307.148 274.58 307.264 274.58 307.38C274.58 307.496 274.557 307.612 274.512 307.719C274.467 307.827 274.402 307.924 274.319 308.006C274.236 308.088 274.138 308.152 274.03 308.196C273.922 308.24 273.806 308.261 273.69 308.26Z" fill="white"/>
<path d="M275.26 267.99H204.46C203.764 267.99 203.2 268.554 203.2 269.25V285.39C203.2 286.086 203.764 286.65 204.46 286.65H275.26C275.956 286.65 276.52 286.086 276.52 285.39V269.25C276.52 268.554 275.956 267.99 275.26 267.99Z" fill="#407BFF"/>
<path opacity="0.2" d="M209.38 269.07H206.48V285.74H209.38V269.07Z" fill="black"/>
<path opacity="0.2" d="M215.98 268.99H213.87V285.66H215.98V268.99Z" fill="black"/>
<path opacity="0.2" d="M222.04 269.07H220.99V285.74H222.04V269.07Z" fill="black"/>
<path opacity="0.2" d="M230.22 268.99H229.69V285.66H230.22V268.99Z" fill="black"/>
<path opacity="0.2" d="M270.35 285.65H273.25V268.98H270.35V285.65Z" fill="black"/>
<path opacity="0.2" d="M263.75 285.74H265.86V269.07H263.75V285.74Z" fill="black"/>
<path opacity="0.2" d="M257.69 285.65H258.74V268.98H257.69V285.65Z" fill="black"/>
<path opacity="0.2" d="M249.5 285.74H250.03V269.07H249.5V285.74Z" fill="black"/>
<path opacity="0.2" d="M239.74 285.74H240V269.07H239.74V285.74Z" fill="black"/>
<path opacity="0.2" d="M274.56 270.83H205.32C205.204 270.831 205.088 270.81 204.98 270.766C204.872 270.722 204.774 270.658 204.691 270.576C204.608 270.494 204.543 270.397 204.498 270.289C204.453 270.182 204.43 270.066 204.43 269.95C204.433 269.716 204.528 269.492 204.694 269.327C204.861 269.162 205.086 269.07 205.32 269.07H274.56C274.794 269.07 275.019 269.162 275.186 269.327C275.352 269.492 275.447 269.716 275.45 269.95C275.45 270.066 275.427 270.182 275.382 270.289C275.337 270.397 275.271 270.494 275.189 270.576C275.106 270.658 275.008 270.722 274.9 270.766C274.792 270.81 274.676 270.831 274.56 270.83Z" fill="white"/>
<path d="M276.4 286.81H205.6C204.904 286.81 204.34 287.374 204.34 288.07V304.21C204.34 304.906 204.904 305.47 205.6 305.47H276.4C277.096 305.47 277.66 304.906 277.66 304.21V288.07C277.66 287.374 277.096 286.81 276.4 286.81Z" fill="#407BFF"/>
<path opacity="0.2" d="M210.51 287.88H207.61V304.55H210.51V287.88Z" fill="black"/>
<path opacity="0.2" d="M217.11 287.8H215V304.47H217.11V287.8Z" fill="black"/>
<path opacity="0.2" d="M223.17 287.88H222.12V304.55H223.17V287.88Z" fill="black"/>
<path opacity="0.2" d="M231.35 287.8H230.82V304.47H231.35V287.8Z" fill="black"/>
<path opacity="0.2" d="M271.48 304.47H274.38V287.8H271.48V304.47Z" fill="black"/>
<path opacity="0.2" d="M264.88 304.55H266.99V287.88H264.88V304.55Z" fill="black"/>
<path opacity="0.2" d="M258.82 304.47H259.87V287.8H258.82V304.47Z" fill="black"/>
<path opacity="0.2" d="M250.64 304.55H251.17V287.88H250.64V304.55Z" fill="black"/>
<path opacity="0.2" d="M240.87 304.55H241.13V287.88H240.87V304.55Z" fill="black"/>
<path opacity="0.2" d="M275.7 289.65H206.45C206.334 289.65 206.218 289.627 206.111 289.582C206.003 289.537 205.906 289.472 205.824 289.389C205.742 289.306 205.678 289.208 205.634 289.1C205.59 288.992 205.569 288.876 205.57 288.76C205.57 288.527 205.663 288.303 205.828 288.138C205.993 287.973 206.217 287.88 206.45 287.88H275.7C275.933 287.883 276.155 287.976 276.319 288.141C276.484 288.305 276.577 288.527 276.58 288.76C276.58 288.994 276.488 289.219 276.323 289.386C276.158 289.552 275.934 289.647 275.7 289.65Z" fill="white"/>
<path d="M250.08 256.31L247.84 260.69L245.56 265.14L241.57 263.68L243.57 259.77L246.09 254.85L250.08 256.31Z" fill="#FFC2BC"/>
<path opacity="0.2" d="M250.08 256.31L247.84 260.69L243.57 259.77L246.09 254.85L250.08 256.31Z" fill="black"/>
<path d="M337.22 231.54C337.1 231.541 336.983 231.498 336.893 231.418C336.803 231.339 336.745 231.229 336.73 231.11C336.59 230.11 323.45 132.11 307.59 89.11C307.558 89.0473 307.54 88.9786 307.536 88.9083C307.532 88.838 307.544 88.7677 307.569 88.702C307.594 88.6364 307.633 88.5768 307.683 88.5273C307.733 88.4777 307.793 88.4393 307.859 88.4145C307.925 88.3897 307.995 88.3791 308.066 88.3834C308.136 88.3877 308.204 88.4068 308.267 88.4394C308.329 88.472 308.384 88.5174 308.428 88.5727C308.471 88.6279 308.503 88.6918 308.52 88.76C324.43 131.84 337.59 230 337.72 231C337.737 231.132 337.702 231.266 337.621 231.373C337.541 231.479 337.422 231.55 337.29 231.57L337.22 231.54Z" fill="#244278"/>
<path d="M311.9 228.72L316.15 228.55L316.98 218.69L312.72 218.86L311.9 228.72Z" fill="#FFC2BC"/>
<path d="M316.55 226.3L311.91 226.15C311.825 226.15 311.743 226.178 311.674 226.228C311.606 226.278 311.555 226.349 311.53 226.43L310.53 230.17C310.506 230.26 310.502 230.355 310.52 230.447C310.538 230.539 310.576 230.625 310.631 230.7C310.687 230.775 310.759 230.837 310.842 230.88C310.925 230.923 311.017 230.947 311.11 230.95C312.79 230.95 315.22 230.95 317.33 231.01C319.79 231.09 321.33 231.01 324.25 231.06C325.99 231.11 326.55 229.37 325.82 229.19C322.52 228.36 320.36 228.51 317.56 226.66C317.262 226.45 316.913 226.326 316.55 226.3Z" fill="#244278"/>
<path opacity="0.2" d="M316.98 218.69L316.55 223.77L312.3 223.95L312.72 218.86L316.98 218.69Z" fill="black"/>
<path d="M310.17 193C311.25 195.07 311.33 216.77 311.33 222.28H318.68C319.63 216.57 324.33 185.91 317.68 181.53C310.36 176.7 291.8 178.36 291.8 178.36L290.46 175.65L287.78 170.25L272.42 176L269.07 177.24L267.69 177.76H267.57C267.57 177.76 267.57 177.91 267.57 178.17C267.62 178.77 267.76 179.98 268.01 181.49C268.3 183.301 268.708 185.092 269.23 186.85C270.65 191.48 273.17 195.85 277.55 194.39C277.74 194.33 277.93 194.25 278.12 194.17C278.48 194.01 278.87 193.86 279.27 193.71C282.781 192.579 286.412 191.864 290.09 191.58C299.37 190.7 309.35 191.4 310.17 193Z" fill="#244278"/>
<path d="M319.01 222.92L310.42 223.15L310.37 220.38L319.81 219.99L319.01 222.92Z" fill="#407BFF"/>
<path d="M246.3 263H241.12C241.036 263 240.955 263.029 240.889 263.082C240.824 263.135 240.778 263.208 240.76 263.29L239.88 267.06C239.859 267.151 239.859 267.246 239.88 267.338C239.9 267.429 239.942 267.515 240 267.588C240.059 267.661 240.134 267.72 240.219 267.76C240.303 267.801 240.396 267.821 240.49 267.82C242.16 267.82 243.38 267.69 245.49 267.69C246.78 267.69 250.67 267.83 252.49 267.83C254.31 267.83 254.49 266.06 253.79 265.9C250.53 265.19 248.07 264.2 247.03 263.26C246.932 263.17 246.817 263.101 246.691 263.056C246.566 263.012 246.433 262.993 246.3 263Z" fill="#244278"/>
<path d="M284 177.72L283.11 180.79C282.64 182.43 281.99 184.66 281.23 187.25L279.33 193.72C276.09 204.67 271.97 218.34 269.69 224.83C265.15 237.71 249.96 260.62 249.96 260.62L242.65 257.94C242.65 257.94 253.87 236.36 257.55 223.3C260.12 214.18 264.15 197.79 266.8 186.78L268.07 181.5C268.5 179.7 268.85 178.23 269.07 177.2C269.29 176.17 269.47 175.51 269.47 175.51L272.42 175.96L284 177.72Z" fill="#244278"/>
<path d="M250.75 261.1L242.15 257.94L243.12 255.38L252.29 258.16L250.75 261.1Z" fill="#407BFF"/>
<path opacity="0.2" d="M290.49 175.64L284 183.21L283.11 180.79L282.11 178.15L281.2 187.25L269.26 186.86L266.77 186.78L268.04 181.5C267.79 179.99 267.65 178.78 267.6 178.18L267.68 177.73L269.06 177.21C269.32 176.13 269.46 175.52 269.46 175.52L272.41 175.97L287.8 170.25L290.49 175.64Z" fill="black"/>
<path opacity="0.2" d="M290.13 191.59C286.025 191.865 281.983 192.738 278.13 194.18C277.94 194.26 277.75 194.34 277.56 194.4L278.43 190.12C278.43 190.12 285.92 189.77 290.13 191.59Z" fill="black"/>
<path d="M234.28 179.75L231.67 183.21L229.46 179C229.46 179 231.97 176.05 233.46 177.41L234.28 179.75Z" fill="#FFC2BC"/>
<path d="M227.68 184.79L227.03 180.48L229.46 178.95L231.67 183.21L227.68 184.79Z" fill="#FFC2BC"/>
<path d="M234.99 179.43L234.26 179.8L233.18 177.06L234.34 176.5L234.99 179.43Z" fill="white"/>
<path d="M264.1 154.46C263.72 155.127 263.33 155.767 262.93 156.38C261.923 158.02 260.87 159.633 259.77 161.22L258.86 162.53C257.94 163.85 256.97 165.14 255.93 166.43C255.41 167.07 254.88 167.72 254.29 168.36C253.698 169.03 253.067 169.665 252.4 170.26C249.842 172.437 247.028 174.294 244.02 175.79C241.121 177.288 238.112 178.565 235.02 179.61L233.72 176.69C235.02 175.9 236.37 175.09 237.66 174.25C238.95 173.41 240.26 172.58 241.51 171.7C242.76 170.82 243.99 169.93 245.15 169C246.291 168.107 247.373 167.142 248.39 166.11C250.31 163.879 252.039 161.49 253.56 158.97C255.23 156.38 257.34 151.84 258.99 149.25L264.1 154.46Z" fill="#244278"/>
<path opacity="0.2" d="M262.93 156.38C261.923 158.02 260.87 159.633 259.77 161.22C259.881 159.117 260.466 157.066 261.48 155.22C262.082 155.428 262.595 155.838 262.93 156.38Z" fill="black"/>
<path d="M320.27 143.69L317.37 146.39L317.78 148.89C318.84 150.29 321.28 148.56 321.85 148.12C321.941 148.054 322.038 147.997 322.14 147.95L323.68 147.33C323.952 147.217 324.178 147.015 324.322 146.757C324.465 146.5 324.517 146.201 324.47 145.91L324.17 144.07C324.143 143.897 324.08 143.732 323.987 143.584C323.894 143.436 323.771 143.309 323.627 143.21C323.483 143.111 323.321 143.042 323.149 143.007C322.978 142.973 322.801 142.974 322.63 143.01L320.9 143.36C320.662 143.406 320.443 143.521 320.27 143.69Z" fill="#FFC2BC"/>
<path d="M316.7 146.41L317.5 146.21L317.96 149.11L316.7 149.41V146.41Z" fill="white"/>
<path d="M317.37 149.43C314.193 150.102 310.971 150.537 307.73 150.73C304.39 150.989 301.032 150.835 297.73 150.27C296.851 150.102 295.983 149.882 295.13 149.61C294.29 149.35 293.51 149.07 292.73 148.78C291.18 148.21 289.73 147.6 288.22 146.93L286.45 146.13C285.11 145.51 283.79 144.87 282.45 144.2C281.45 143.72 280.52 143.2 279.56 142.68L282.13 136.57C284.88 137.95 288.13 139.82 290.89 141.19C293.481 142.583 296.187 143.747 298.98 144.67C300.38 145.04 301.803 145.318 303.24 145.5C304.72 145.71 306.24 145.84 307.75 145.96C309.26 146.08 310.82 146.15 312.36 146.17C313.9 146.19 315.48 146.24 317 146.26L317.37 149.43Z" fill="#244278"/>
<path opacity="0.2" d="M286.42 146.13C285.08 145.51 283.76 144.87 282.42 144.2L281.9 141.36C283.901 142.395 285.494 144.076 286.42 146.13Z" fill="black"/>
<path d="M259.88 148.7C261.533 152.766 262.851 156.96 263.82 161.24C264.54 164.24 267.09 167.24 267.53 169.99C267.95 173.023 268.551 176.029 269.33 178.99C272.38 177.35 281.61 175.32 287.8 171.99C288.06 147.07 281.37 137.35 281.37 137.35C279.671 137.782 278.002 138.32 276.37 138.96L275.29 139.41C272.311 140.816 269.408 142.374 266.59 144.08C266.04 144.41 265.49 144.75 264.96 145.08C262.24 146.86 259.88 148.7 259.88 148.7Z" fill="#407BFF"/>
<path opacity="0.7" d="M259.88 148.7C261.533 152.766 262.851 156.96 263.82 161.24C264.54 164.24 267.09 167.24 267.53 169.99C267.95 173.023 268.551 176.029 269.33 178.99C272.38 177.35 281.61 175.32 287.8 171.99C288.06 147.07 281.37 137.35 281.37 137.35C279.671 137.782 278.002 138.32 276.37 138.96L275.29 139.41C272.311 140.816 269.408 142.374 266.59 144.08C266.04 144.41 265.49 144.75 264.96 145.08C262.24 146.86 259.88 148.7 259.88 148.7Z" fill="white"/>
<path d="M276.27 148.23L276.65 145.92L275.06 145.82L274.09 146.89L276.27 148.23Z" fill="#407BFF"/>
<path d="M275.06 145.82C272.12 147.46 269.21 145.55 267.33 144.24L267.13 144.1C267.96 142.95 268.04 141.1 267.77 139.24C267.451 137.185 266.901 135.172 266.13 133.24L272.86 137.1C272.86 137.56 272.78 137.97 272.76 138.33C272.67 139.2 272.66 139.79 273.14 140.17C273.886 140.586 274.737 140.777 275.59 140.72C276.36 141.61 277.08 144.69 275.06 145.82Z" fill="#FFC2BC"/>
<path d="M265 145.11C265 145.11 273.47 153.95 279.67 158.76C279.67 158.76 279.21 143.13 276.41 138.98L282.17 136.57C282.17 136.57 287.71 148.81 288.5 169.25L291 174.4L284 181.52L281.75 176.24L280.24 185L265.8 186.28L267.57 176.28L259.04 149.28L265 145.11Z" fill="#244278"/>
<path d="M275.51 147.76C275.51 147.76 277.51 154.58 277.37 158.22L279.95 159.56L280.41 157.56C280.41 157.56 278.14 148.77 276.05 147.23L275.51 147.76Z" fill="#407BFF"/>
<path d="M265.3 144.38C265.3 144.38 275.88 155.99 279.62 158.76C279.62 158.76 278.53 143.04 276.1 139.09C276.1 139.09 277.77 137.94 281.33 141.41L279.55 144.71L282.71 146.89C282.71 146.89 281.63 158.67 279.55 164.26C279.701 163.08 279.768 161.89 279.75 160.7L267.34 153.82L267.89 150.02L263.2 149.82C263.2 149.82 263.72 145.33 265.3 144.38Z" fill="#244278"/>
<path opacity="0.2" d="M265.3 144.38C265.3 144.38 275.88 155.99 279.62 158.76C279.62 158.76 278.53 143.04 276.1 139.09C276.1 139.09 277.77 137.94 281.33 141.41L279.55 144.71L282.71 146.89C282.71 146.89 281.63 158.67 279.55 164.26C279.701 163.08 279.768 161.89 279.75 160.7L267.34 153.82L267.89 150.02L263.2 149.82C263.2 149.82 263.72 145.33 265.3 144.38Z" fill="white"/>
<path d="M308.38 89.82C308.38 89.82 302.38 89.14 299.03 90.72C295.68 92.3 292.31 97.45 286.87 97.94C281.43 98.43 280.34 96.66 280.34 96.66C280.34 96.66 285.13 105.16 294.34 105.07C303.55 104.98 308.34 103.46 313.77 106.88C313.79 106.88 309.61 92.47 308.38 89.82Z" fill="#407BFF"/>
<path opacity="0.2" d="M273.14 140.15C272.58 141.89 271.19 144.35 267.9 144.29C267.71 144.306 267.52 144.306 267.33 144.29L267.13 144.15C267.96 143 268.04 141.15 267.77 139.29C269.249 138.333 271.046 137.999 272.77 138.36C272.67 139.18 272.66 139.77 273.14 140.15Z" fill="black"/>
<path d="M275.06 145.82C275.113 147.028 274.854 148.23 274.31 149.31C272.46 149.05 266.93 146.31 266.65 144.02C266.793 143.47 267.091 142.974 267.51 142.59C269.618 144.444 272.263 145.576 275.06 145.82Z" fill="white"/>
<path d="M275.06 145.82C276.089 146.087 277.048 146.575 277.87 147.25C278.39 145.1 276.24 139.93 275.69 139.65C274.793 139.563 273.889 139.715 273.07 140.09C273.07 140.09 276.09 142.91 275.06 145.82Z" fill="white"/>
<path d="M260.25 131.08C260.14 132.79 261.25 135.99 263.17 134.39C265.09 132.79 260.44 128.14 260.25 131.08Z" fill="#244278"/>
<path d="M272.22 130.43C273.46 134.43 274.39 136.75 273.16 139.5C271.3 143.64 265.74 143.63 263.31 140.04C261.13 136.82 259.46 130.78 262.75 127.79C263.477 127.13 264.36 126.666 265.315 126.44C266.271 126.214 267.268 126.233 268.213 126.497C269.159 126.761 270.023 127.26 270.723 127.947C271.424 128.635 271.939 129.489 272.22 130.43Z" fill="#FFC2BC"/>
<path d="M272.86 125.34C272.46 122.72 269.35 123.09 267.53 124.47V129.64C268.232 129.306 268.902 128.908 269.53 128.45C269.53 128.45 270.24 132.32 272.61 133.45C275.63 130.52 275.88 126 272.86 125.34Z" fill="#244278"/>
<path d="M275 133.14C275.057 134.191 274.698 135.222 274 136.01C273.05 137.01 271.83 136.36 271.48 135.07C271.13 133.78 271.27 132 272.48 131.45C272.757 131.334 273.059 131.289 273.358 131.319C273.657 131.348 273.944 131.451 274.194 131.618C274.443 131.786 274.648 132.012 274.788 132.278C274.929 132.543 275.002 132.84 275 133.14Z" fill="#FFC2BC"/>
<path d="M266.64 133.73C266.76 134.05 266.64 134.37 266.47 134.45C266.3 134.53 265.99 134.33 265.87 134.01C265.75 133.69 265.87 133.37 266.04 133.29C266.21 133.21 266.51 133.41 266.64 133.73Z" fill="#244278"/>
<path d="M263 135.06C263.13 135.38 263.05 135.7 262.84 135.78C262.63 135.86 262.36 135.66 262.24 135.34C262.12 135.02 262.19 134.7 262.4 134.62C262.61 134.54 262.87 134.74 263 135.06Z" fill="#244278"/>
<path d="M264.21 134.8C264.17 135.891 263.979 136.972 263.64 138.01C263.917 138.079 264.206 138.089 264.488 138.037C264.769 137.985 265.036 137.874 265.27 137.71L264.21 134.8Z" fill="#ED893E"/>
<path d="M267.46 138.31L267.05 138.49C267.025 138.499 266.997 138.498 266.973 138.487C266.948 138.476 266.929 138.455 266.92 138.43C266.911 138.405 266.912 138.377 266.923 138.353C266.934 138.328 266.955 138.309 266.98 138.3C267.382 138.163 267.747 137.933 268.044 137.629C268.341 137.325 268.562 136.955 268.69 136.55C268.692 136.537 268.697 136.524 268.705 136.513C268.712 136.502 268.722 136.492 268.733 136.484C268.744 136.477 268.757 136.472 268.77 136.469C268.783 136.467 268.797 136.467 268.81 136.47C268.823 136.472 268.836 136.477 268.847 136.485C268.857 136.492 268.867 136.502 268.873 136.513C268.88 136.525 268.884 136.538 268.885 136.551C268.886 136.564 268.885 136.578 268.88 136.59C268.773 136.958 268.592 137.301 268.348 137.597C268.104 137.893 267.802 138.135 267.46 138.31Z" fill="#244278"/>
<path d="M267.32 132.15C267.288 132.167 267.252 132.177 267.215 132.177C267.178 132.177 267.142 132.167 267.11 132.15C266.9 132.007 266.659 131.916 266.407 131.885C266.155 131.854 265.899 131.883 265.66 131.97C265.611 131.991 265.556 131.992 265.506 131.972C265.456 131.953 265.416 131.914 265.395 131.865C265.374 131.816 265.373 131.76 265.393 131.711C265.412 131.661 265.451 131.621 265.5 131.6C265.8 131.486 266.122 131.445 266.441 131.482C266.759 131.518 267.064 131.631 267.33 131.81C267.374 131.84 267.404 131.886 267.415 131.938C267.426 131.99 267.417 132.044 267.39 132.09C267.371 132.115 267.347 132.135 267.32 132.15Z" fill="#244278"/>
<path d="M261 134.39C260.961 134.405 260.919 134.405 260.88 134.39C260.854 134.387 260.828 134.38 260.805 134.367C260.781 134.355 260.761 134.338 260.744 134.318C260.727 134.297 260.715 134.274 260.707 134.248C260.7 134.223 260.697 134.196 260.7 134.17C260.728 133.849 260.834 133.539 261.008 133.267C261.183 132.996 261.42 132.77 261.7 132.61C261.724 132.598 261.749 132.591 261.776 132.589C261.802 132.587 261.829 132.59 261.854 132.599C261.879 132.607 261.902 132.62 261.922 132.638C261.942 132.655 261.958 132.676 261.97 132.7C261.995 132.746 262.001 132.801 261.986 132.851C261.971 132.902 261.936 132.945 261.89 132.97C261.673 133.1 261.492 133.281 261.361 133.497C261.23 133.713 261.155 133.958 261.14 134.21C261.138 134.251 261.123 134.29 261.098 134.322C261.073 134.354 261.039 134.378 261 134.39Z" fill="#244278"/>
<path d="M269.44 128.48C269.44 128.48 266.91 131.09 264.44 130.96C265.106 130.657 265.712 130.237 266.23 129.72C266.23 129.72 261.4 131.81 259.02 130.72C256.64 129.63 256.91 128.45 256.91 128.45C256.91 128.45 257.18 129.14 259.49 129.07C259.49 129.07 257.49 127.76 258.3 125.91C258.416 126.131 258.585 126.32 258.793 126.458C259.001 126.596 259.241 126.679 259.49 126.7C260.274 125.493 261.326 124.484 262.565 123.752C263.803 123.02 265.195 122.584 266.63 122.48C271.82 121.89 272.87 123.94 273.1 125.48C273.33 127.02 269.44 128.48 269.44 128.48Z" fill="#244278"/>
<path d="M186.34 398.49H115.54C114.844 398.49 114.28 399.054 114.28 399.75V415.89C114.28 416.586 114.844 417.15 115.54 417.15H186.34C187.036 417.15 187.6 416.586 187.6 415.89V399.75C187.6 399.054 187.036 398.49 186.34 398.49Z" fill="#407BFF"/>
<path opacity="0.2" d="M120.46 399.57H117.56V416.24H120.46V399.57Z" fill="black"/>
<path opacity="0.2" d="M127.05 399.49H124.94V416.16H127.05V399.49Z" fill="black"/>
<path opacity="0.2" d="M133.11 399.57H132.06V416.24H133.11V399.57Z" fill="black"/>
<path opacity="0.2" d="M141.29 399.49H140.76V416.16H141.29V399.49Z" fill="black"/>
<path opacity="0.2" d="M181.42 416.16H184.32V399.49H181.42V416.16Z" fill="black"/>
<path opacity="0.2" d="M174.83 416.24H176.94V399.57H174.83V416.24Z" fill="black"/>
<path opacity="0.2" d="M168.76 416.16H169.81V399.49H168.76V416.16Z" fill="black"/>
<path opacity="0.2" d="M160.58 416.24H161.11V399.57H160.58V416.24Z" fill="black"/>
<path opacity="0.2" d="M150.81 416.24H151.07V399.57H150.81V416.24Z" fill="black"/>
<path opacity="0.2" d="M185.64 401.33H116.39C116.274 401.331 116.159 401.309 116.052 401.266C115.944 401.222 115.847 401.157 115.765 401.075C115.683 400.993 115.618 400.896 115.574 400.788C115.53 400.681 115.509 400.566 115.51 400.45C115.51 400.217 115.603 399.993 115.768 399.828C115.933 399.663 116.157 399.57 116.39 399.57H185.64C185.873 399.57 186.097 399.663 186.262 399.828C186.427 399.993 186.52 400.217 186.52 400.45C186.521 400.566 186.499 400.681 186.456 400.788C186.412 400.896 186.347 400.993 186.265 401.075C186.183 401.157 186.086 401.222 185.978 401.266C185.871 401.309 185.756 401.331 185.64 401.33Z" fill="white"/>
<path d="M187.34 379.88H116.54C115.844 379.88 115.28 380.444 115.28 381.14V397.28C115.28 397.976 115.844 398.54 116.54 398.54H187.34C188.036 398.54 188.6 397.976 188.6 397.28V381.14C188.6 380.444 188.036 379.88 187.34 379.88Z" fill="#407BFF"/>
<path opacity="0.2" d="M121.46 380.96H118.56V397.63H121.46V380.96Z" fill="black"/>
<path opacity="0.2" d="M128.05 380.88H125.94V397.55H128.05V380.88Z" fill="black"/>
<path opacity="0.2" d="M134.11 380.96H133.06V397.63H134.11V380.96Z" fill="black"/>
<path opacity="0.2" d="M142.3 380.88H141.77V397.55H142.3V380.88Z" fill="black"/>
<path opacity="0.2" d="M182.42 397.54H185.32V380.87H182.42V397.54Z" fill="black"/>
<path opacity="0.2" d="M175.82 397.62H177.93V380.95H175.82V397.62Z" fill="black"/>
<path opacity="0.2" d="M169.76 397.54H170.81V380.87H169.76V397.54Z" fill="black"/>
<path opacity="0.2" d="M161.58 397.62H162.11V380.95H161.58V397.62Z" fill="black"/>
<path opacity="0.2" d="M151.81 397.62H152.07V380.95H151.81V397.62Z" fill="black"/>
<path opacity="0.2" d="M186.64 382.72H117.39C117.157 382.72 116.933 382.627 116.768 382.462C116.603 382.297 116.51 382.073 116.51 381.84C116.509 381.724 116.53 381.609 116.574 381.502C116.618 381.394 116.683 381.297 116.765 381.215C116.847 381.133 116.944 381.068 117.052 381.024C117.159 380.981 117.274 380.959 117.39 380.96H186.64C186.756 380.959 186.871 380.981 186.978 381.024C187.086 381.068 187.183 381.133 187.265 381.215C187.347 381.297 187.412 381.394 187.456 381.502C187.499 381.609 187.521 381.724 187.52 381.84C187.52 382.073 187.427 382.297 187.262 382.462C187.097 382.627 186.873 382.72 186.64 382.72Z" fill="white"/>
<path d="M183.34 361.27H112.54C111.844 361.27 111.28 361.834 111.28 362.53V378.67C111.28 379.366 111.844 379.93 112.54 379.93H183.34C184.036 379.93 184.6 379.366 184.6 378.67V362.53C184.6 361.834 184.036 361.27 183.34 361.27Z" fill="#407BFF"/>
<path opacity="0.2" d="M117.45 362.34H114.55V379.01H117.45V362.34Z" fill="black"/>
<path opacity="0.2" d="M124.05 362.26H121.94V378.93H124.05V362.26Z" fill="black"/>
<path opacity="0.2" d="M130.11 362.34H129.06V379.01H130.11V362.34Z" fill="black"/>
<path opacity="0.2" d="M138.29 362.26H137.76V378.93H138.29V362.26Z" fill="black"/>
<path opacity="0.2" d="M178.41 378.93H181.31V362.26H178.41V378.93Z" fill="black"/>
<path opacity="0.2" d="M171.83 379.01H173.94V362.34H171.83V379.01Z" fill="black"/>
<path opacity="0.2" d="M165.76 378.93H166.81V362.26H165.76V378.93Z" fill="black"/>
<path opacity="0.2" d="M157.58 379.01H158.11V362.34H157.58V379.01Z" fill="black"/>
<path opacity="0.2" d="M147.81 379.01H148.07V362.34H147.81V379.01Z" fill="black"/>
<path opacity="0.2" d="M182.64 364.1H113.39C113.274 364.101 113.159 364.079 113.052 364.036C112.944 363.992 112.847 363.927 112.765 363.845C112.683 363.763 112.618 363.666 112.574 363.558C112.53 363.451 112.509 363.336 112.51 363.22C112.51 362.987 112.603 362.763 112.768 362.598C112.933 362.433 113.157 362.34 113.39 362.34H182.64C182.873 362.343 183.095 362.436 183.259 362.601C183.424 362.765 183.517 362.987 183.52 363.22C183.52 363.453 183.427 363.677 183.262 363.842C183.097 364.007 182.873 364.1 182.64 364.1Z" fill="white"/>
<path d="M143.46 348.93L141.45 353.88L139.93 357.62L136.11 356.26L137.48 352.9L139.64 347.56L143.46 348.93Z" fill="#E4897B"/>
<path d="M225.1 322.43L221.85 324.84L220.66 322.2L217.9 316.1L221.15 313.68L223.76 319.46L225.1 322.43Z" fill="#E4897B"/>
<path opacity="0.2" d="M139.64 347.56L143.46 348.93L141.45 353.88L137.48 352.9L139.64 347.56Z" fill="black"/>
<path opacity="0.2" d="M223.76 319.46L220.66 322.2L217.9 316.1L221.15 313.68L223.76 319.46Z" fill="black"/>
<path d="M172.13 211.88C172.24 212.19 172.49 212.38 172.69 212.31C172.89 212.24 172.97 211.93 172.86 211.62C172.75 211.31 172.5 211.12 172.3 211.19C172.1 211.26 172 211.57 172.13 211.88Z" fill="#244278"/>
<path d="M172.46 212.39C173.159 213.2 173.967 213.91 174.86 214.5C174.705 214.727 174.502 214.916 174.265 215.054C174.028 215.193 173.763 215.277 173.49 215.3L172.46 212.39Z" fill="#DE5753"/>
<path d="M170.4 210.57C170.354 210.583 170.306 210.583 170.26 210.57C170.227 210.535 170.209 210.488 170.209 210.44C170.209 210.392 170.227 210.345 170.26 210.31C170.427 210.057 170.652 209.847 170.917 209.697C171.181 209.548 171.477 209.463 171.78 209.45C171.831 209.453 171.88 209.475 171.915 209.512C171.95 209.549 171.97 209.599 171.97 209.65C171.97 209.676 171.965 209.701 171.955 209.725C171.944 209.749 171.93 209.77 171.911 209.788C171.892 209.806 171.87 209.82 171.846 209.829C171.822 209.837 171.796 209.841 171.77 209.84C171.529 209.85 171.295 209.918 171.086 210.038C170.877 210.158 170.7 210.327 170.57 210.53C170.546 210.548 170.518 210.561 170.489 210.568C170.46 210.574 170.43 210.575 170.4 210.57Z" fill="#244278"/>
<path d="M164.73 216.92C164.78 219.92 164.4 225.38 162.01 226.97C162.01 226.97 162.28 230.07 167.7 231.03C173.7 232.1 171.08 228.58 171.08 228.58C167.97 227.23 168.48 224.83 169.45 222.66L164.73 216.92Z" fill="#E4897B"/>
<path d="M161.63 214.85C163.19 218.55 163.92 220.85 166.52 222.07C170.42 223.97 174.52 220.59 174.05 216.5C173.67 212.81 171.17 207.38 166.93 207.18C165.997 207.132 165.068 207.324 164.23 207.737C163.392 208.149 162.673 208.769 162.142 209.538C161.611 210.306 161.285 211.197 161.195 212.127C161.106 213.057 161.255 213.994 161.63 214.85Z" fill="#E4897B"/>
<path d="M164.27 220.87C166.03 221.58 171.56 217.62 169.67 213.06C169.67 213.06 171.56 210.01 170.88 207.06C170.2 204.11 167.98 203.22 165.88 204.18C164.02 205.02 164.22 206.07 164.22 206.07C164.22 206.07 155.22 208.43 157.68 211.88C154.51 216.44 162.06 220 164.27 220.87Z" fill="#244278"/>
<path d="M168.19 214.1C168.586 215.017 169.271 215.779 170.14 216.27C171.3 216.9 171.97 216.02 171.73 214.85C171.49 213.68 170.66 212.2 169.46 212.05C168.26 211.9 167.73 213 168.19 214.1Z" fill="#E4897B"/>
<path d="M160.57 227C160.15 226.16 159.69 225.2 160.71 224.94C161.73 224.68 168.97 224.26 171.04 224.94C170.36 226.07 171.41 227.51 171.41 227.51L160.57 227Z" fill="#407BFF"/>
<path opacity="0.5" d="M160.57 227C160.15 226.16 159.69 225.2 160.71 224.94C161.73 224.68 168.97 224.26 171.04 224.94C170.36 226.07 171.41 227.51 171.41 227.51L160.57 227Z" fill="#FAFAFA"/>
<path d="M140.19 356H135.77C135.69 356.001 135.612 356.029 135.55 356.08C135.489 356.131 135.446 356.201 135.43 356.28L134.63 359.88C134.608 359.967 134.607 360.058 134.626 360.145C134.646 360.233 134.685 360.314 134.741 360.384C134.797 360.454 134.869 360.51 134.95 360.547C135.032 360.585 135.12 360.603 135.21 360.6C136.8 360.6 139.11 360.48 141.11 360.48C143.46 360.48 145.48 360.61 148.23 360.61C149.9 360.61 150.36 358.93 149.66 358.78C146.49 358.08 143.91 358.01 141.17 356.32C140.878 356.126 140.54 356.016 140.19 356Z" fill="#244278"/>
<path d="M168.79 262.75C168.79 262.75 167.53 271.24 166 281C165.33 285.18 164.61 289.59 163.9 293.67C163.11 298.24 162.34 302.38 161.7 305.3C158.91 318 144.1 353 144.1 353L136.85 351.43C136.85 351.43 147.21 324.2 149.52 306.43C151.31 292.8 154.82 262.74 154.82 262.74L168.79 262.75Z" fill="#244278"/>
<path d="M145.83 350.57L144.48 353.19L136.32 351.42L137 349L145.83 350.57Z" fill="#407BFF"/>
<path opacity="0.3" d="M145.83 350.57L144.48 353.19L136.32 351.42L137 349L145.83 350.57Z" fill="black"/>
<path opacity="0.2" d="M166 281C165.33 285.18 164.61 289.59 163.9 293.67C161.9 285.6 162.55 280.77 162.55 280.77L166 281Z" fill="black"/>
<path d="M156.94 234.41C154.99 236.25 152.94 238.2 151.08 240.15C149.2 242.059 147.418 244.062 145.74 246.15C145.024 247.185 144.379 248.267 143.81 249.39C143.19 250.6 142.56 251.83 141.96 253.09L138.29 260.67L135.41 259.67C136.03 256.86 136.82 254.12 137.68 251.37C138.13 250 138.61 248.63 139.14 247.26C139.699 245.787 140.385 244.365 141.19 243.01C142.815 240.531 144.641 238.19 146.65 236.01C148.593 233.829 150.663 231.766 152.85 229.83L156.94 234.41Z" fill="#DC897C"/>
<path d="M135.17 267.07L136.64 264.46L132.16 263.1C131.907 263.704 131.784 264.354 131.798 265.008C131.812 265.663 131.962 266.307 132.24 266.9L135.17 267.07Z" fill="#E4897B"/>
<path d="M138.28 260.63L135.41 259.7L132.16 263.1L136.64 264.46L138.28 260.63Z" fill="#E4897B"/>
<path d="M225.05 321.88L221.4 324.59C221.336 324.639 221.291 324.708 221.271 324.786C221.251 324.864 221.258 324.946 221.29 325.02L222.79 328.39C222.825 328.473 222.88 328.546 222.948 328.604C223.017 328.662 223.098 328.703 223.185 328.724C223.272 328.746 223.363 328.747 223.451 328.727C223.539 328.707 223.62 328.667 223.69 328.61C224.95 327.61 225.52 327.11 227.12 325.92C228.12 325.19 230.4 323.58 231.77 322.57C233.14 321.56 232.31 320.07 231.66 320.37C228.75 321.68 227.07 321.82 225.73 321.69C225.488 321.669 225.246 321.736 225.05 321.88Z" fill="#244278"/>
<path d="M155.2 227.38C151.31 227.14 145.57 235.55 145.57 235.55L151.23 243.28C153.714 241.831 155.781 239.764 157.23 237.28C159.92 232.74 159.17 227.63 155.2 227.38Z" fill="#407BFF"/>
<path opacity="0.6" d="M155.2 227.38C151.31 227.14 145.57 235.55 145.57 235.55L151.23 243.28C153.714 241.831 155.781 239.764 157.23 237.28C159.92 232.74 159.17 227.63 155.2 227.38Z" fill="#FAFAFA"/>
<path opacity="0.2" d="M156.3 235.14C153.75 236.51 152.05 239.88 150.98 242.93L151.23 243.28C153.714 241.831 155.781 239.764 157.23 237.28C157.39 237.02 157.54 236.74 157.68 236.47L156.3 235.14Z" fill="black"/>
<path d="M178.22 226.76C178.22 226.76 180.55 232.62 176.47 262.76H154.82C154.67 259.43 156.76 243.21 153.55 227.55C155.944 227.085 158.366 226.778 160.8 226.63C163.57 226.5 172.8 224.63 175.24 224.86C178.45 225.14 178.22 226.76 178.22 226.76Z" fill="#407BFF"/>
<path opacity="0.6" d="M178.73 240.05C178.47 245.38 177.82 252.72 176.47 262.75H154.82C154.67 259.42 156.76 243.2 153.55 227.54C155.944 227.075 158.366 226.768 160.8 226.62C163.57 226.49 172.8 224.62 175.24 224.85C178.45 225.14 178.24 226.76 178.24 226.76C178.24 226.76 178.73 227.99 178.86 232.22C178.91 234.15 178.9 236.7 178.73 240.05Z" fill="#FAFAFA"/>
<path d="M175.59 261L179.87 271C179.87 271 200.6 273.6 206.48 280.73C212.36 287.86 223.48 316.79 223.48 316.79L217.94 321.5C217.94 321.5 202.04 292.26 197.59 288.73C193.14 285.2 167.81 285.21 162.15 283.1C156.49 280.99 154.86 262.72 154.86 262.72L175.59 261Z" fill="#244278"/>
<path d="M216.76 320.95L223.44 315.83L224.3 317.48L217.9 322.53L216.76 320.95Z" fill="#407BFF"/>
<path opacity="0.3" d="M216.76 320.95L223.44 315.83L224.3 317.48L217.9 322.53L216.76 320.95Z" fill="black"/>
<path d="M171 208.5C171 208.5 170.75 202.56 167.61 202.36C164.47 202.16 162 205 162 205C161.696 204.621 161.311 204.315 160.873 204.104C160.435 203.892 159.956 203.782 159.47 203.78C157.69 203.68 154.59 206.71 154.59 206.71C154.59 206.71 158.46 204.33 160.09 205.42C160.09 205.42 155.7 206.64 154.59 209.42C154.114 210.832 153.328 212.12 152.29 213.19H154.59L153.08 215.76C153.08 215.76 156.26 218.83 158.66 218.32L157.89 219.78C157.89 219.78 162.6 221.5 164.52 220.97C166.44 220.44 164.62 210.88 164.62 210.88L171 208.5Z" fill="#244278"/>
<path opacity="0.2" d="M178.73 240.05C174.8 237.38 174.86 231.23 174.86 231.23L178.86 232.23C178.91 234.15 178.9 236.7 178.73 240.05Z" fill="black"/>
<path d="M142.48 270.41L115.77 265.92L108.86 286.48L113.28 294.51L142.44 298.35L148.35 275.95L142.48 270.41Z" fill="#407BFF"/>
<path opacity="0.4" d="M108.86 286.48L110.58 289.61L110.97 290.3L113.28 294.51L142.44 298.35L148.35 275.95L145.84 273.59L145.07 272.86L142.49 270.41L115.77 265.92L108.86 286.48Z" fill="black"/>
<path opacity="0.2" d="M148.35 275.95L121.91 271.84L115.77 265.92L142.49 270.41L148.35 275.95Z" fill="white"/>
<path opacity="0.1" d="M121.91 271.84L113.28 294.51L108.86 286.48L115.77 265.92L121.91 271.84Z" fill="white"/>
<path d="M110.58 289.61L110.97 290.3L118.96 269.07L145.84 273.59L145.07 272.86L118.48 268.6L110.58 289.61Z" fill="#244278"/>
<path d="M136.82 271.63L135.47 270.38L128.74 269.16L129.92 270.52L136.82 271.63Z" fill="#244278"/>
<path d="M139.42 272.13C139.42 272.13 139.73 265.07 139.54 264.6C139.35 264.13 129.88 262.6 129.17 262.45C128.46 262.3 125.34 269.18 125.34 269.18L125.88 270.01L127.67 270.25C127.67 270.25 129.94 264.32 130.17 264.17C132.765 264.446 135.342 264.867 137.89 265.43C138.09 265.59 137.31 270.98 137.31 270.98L137.92 271.86L139.42 272.13Z" fill="#244278"/>
<path d="M110.67 283.35L112.67 285.92L112.86 285.41L114.37 281.41L114.55 280.93L114.87 280.07C114.87 280.07 114.3 280.71 113.52 281.44C112.711 282.266 111.741 282.916 110.67 283.35Z" fill="#407BFF"/>
<path opacity="0.2" d="M111.32 283.54L112.81 285.41L114.32 281.41L114.5 280.93C113.671 282.049 112.579 282.945 111.32 283.54Z" fill="white"/>
<path opacity="0.2" d="M113.47 281.43H114.32L114.82 280.09C114.82 280.09 114.25 280.7 113.47 281.43Z" fill="black"/>
<path d="M109.94 278.32L109.57 281.94C111.064 281.257 112.728 281.034 114.35 281.3L114.54 280.8L115.7 277.69L115.83 277.37C113.817 277.172 111.788 277.499 109.94 278.32Z" fill="#407BFF"/>
<path d="M113.74 272.18C114.439 273.542 115.358 274.778 116.46 275.84L116.6 275.46L116.96 274.46L117.56 272.81L117.85 272.01L117.93 271.78C117.451 271.047 117.036 270.274 116.69 269.47L113.74 272.18Z" fill="#407BFF"/>
<path d="M119.86 267.52C120.225 268.091 120.507 268.71 120.7 269.36L121.12 269.43L121.7 269.52L122.63 269.69L123.52 269.84L123.83 269.89C123.814 268.501 123.295 267.165 122.37 266.13L119.86 267.52Z" fill="#407BFF"/>
<path opacity="0.2" d="M120.42 267.62C120.718 268.196 120.953 268.803 121.12 269.43L121.7 269.52C121.651 269.444 121.619 269.358 121.607 269.268C121.595 269.178 121.603 269.087 121.63 269C121.656 268.921 121.697 268.848 121.752 268.785C121.806 268.722 121.872 268.671 121.947 268.633C122.021 268.596 122.102 268.574 122.185 268.568C122.268 268.563 122.351 268.573 122.43 268.6C122.509 268.625 122.581 268.665 122.644 268.719C122.707 268.772 122.759 268.837 122.796 268.911C122.833 268.985 122.855 269.065 122.861 269.147C122.867 269.229 122.856 269.312 122.83 269.39C122.793 269.507 122.724 269.611 122.63 269.69L123.52 269.84C123.467 268.663 123.059 267.53 122.35 266.59L120.42 267.62Z" fill="white"/>
<path opacity="0.2" d="M110.18 278.46L109.95 281.39C111.426 280.894 112.986 280.693 114.54 280.8L115.7 277.69C113.824 277.463 111.922 277.728 110.18 278.46ZM113.39 278.22C113.51 278.178 113.638 278.165 113.764 278.18C113.89 278.196 114.011 278.24 114.118 278.31C114.224 278.38 114.313 278.473 114.377 278.583C114.442 278.692 114.48 278.815 114.49 278.942C114.499 279.069 114.48 279.196 114.432 279.314C114.385 279.432 114.311 279.537 114.216 279.622C114.121 279.707 114.008 279.769 113.886 279.803C113.764 279.838 113.635 279.843 113.51 279.82C113.39 279.862 113.262 279.875 113.136 279.86C113.009 279.844 112.889 279.8 112.782 279.73C112.676 279.66 112.587 279.567 112.523 279.457C112.458 279.348 112.42 279.225 112.41 279.098C112.401 278.971 112.42 278.844 112.468 278.726C112.515 278.608 112.589 278.503 112.684 278.418C112.779 278.333 112.891 278.271 113.014 278.237C113.136 278.202 113.265 278.197 113.39 278.22Z" fill="white"/>
<path opacity="0.2" d="M114.25 272.34C114.907 273.469 115.696 274.516 116.6 275.46L116.96 274.46C116.756 274.377 116.591 274.219 116.502 274.017C116.412 273.816 116.404 273.587 116.48 273.38C116.543 273.175 116.68 273 116.865 272.891C117.05 272.782 117.27 272.746 117.48 272.79L117.77 271.99C117.262 271.428 116.85 270.786 116.55 270.09L114.25 272.34Z" fill="white"/>
<path d="M203.73 207.86L205.27 205.29L208.67 208.51C208.27 209.028 207.766 209.456 207.191 209.767C206.616 210.079 205.982 210.267 205.33 210.32L203.73 207.86Z" fill="#E4897B"/>
<path d="M207.65 201.85L210.06 205.24L208.67 208.51L205.27 205.29L207.65 201.85Z" fill="#E4897B"/>
<path d="M177.12 225.36C179.887 224.792 182.624 224.085 185.32 223.24C187.917 222.47 190.41 221.381 192.74 220C192.953 219.867 193.157 219.72 193.35 219.56L194.04 218.92C194.52 218.46 195.04 217.92 195.49 217.44C196.44 216.38 197.42 215.29 198.36 214.17C200.29 211.95 202.17 209.64 204.11 207.39L206.64 209.07C205.25 211.78 203.71 214.36 202.08 216.93C201.25 218.2 200.4 219.48 199.46 220.73C198.99 221.35 198.46 221.98 197.96 222.61C197.7 222.92 197.37 223.24 197.08 223.56C196.722 223.914 196.345 224.248 195.95 224.56C193.295 226.465 190.374 227.968 187.28 229.02C184.322 230.09 181.278 230.903 178.18 231.45L177.12 225.36Z" fill="#DC897C"/>
<path d="M175.83 234.1C180.04 237.75 189.29 231.49 189.29 231.49L185.6 222.38C182.206 222.776 178.857 223.496 175.6 224.53C169.75 226.52 172.61 231.32 175.83 234.1Z" fill="#407BFF"/>
<path opacity="0.6" d="M175.83 234.1C180.04 237.75 189.29 231.49 189.29 231.49L185.6 222.38C182.206 222.776 178.857 223.496 175.6 224.53C169.75 226.52 172.61 231.32 175.83 234.1Z" fill="#FAFAFA"/>
</svg>
