<svg width="500" height="500" viewBox="0 0 500 500" fill="none" xmlns="http://www.w3.org/2000/svg">
<path d="M387.51 200.52C387.51 200.52 372 223.4 372 234.68C372 242.17 373.89 248.54 383.78 248.77C393.67 249 406.54 248.91 406.54 248.91C406.54 248.91 420.47 245.73 413.88 228.59C409.964 218.763 405.02 209.377 399.13 200.59L387.51 200.52Z" fill="#EBEBEB"/>
<path d="M405.45 185.74C405.29 184.63 403.93 184.14 402.8 184.15C398.8 184.22 395.41 187.6 391.44 187.4C388.95 187.27 386.78 185.75 384.49 184.76C383.944 184.49 383.348 184.333 382.74 184.3C382.437 184.282 382.135 184.337 381.858 184.461C381.582 184.585 381.339 184.773 381.15 185.01C380.59 185.8 380.94 186.88 381.31 187.78C383.15 192.17 386.19 196.53 388.4 200.78L399.88 201.25C399.851 196.44 401.467 191.765 404.46 188C404.773 187.713 405.023 187.364 405.194 186.975C405.364 186.585 405.451 186.165 405.45 185.74Z" fill="#EBEBEB"/>
<path d="M394.59 235.94V238.28H392.5V236C390.646 235.926 388.849 235.337 387.31 234.3L388.48 231.75C389.66 232.591 391.039 233.111 392.48 233.26V229.77C390.17 229.19 387.58 228.41 387.6 225.42C387.6 223.2 389.23 221.31 392.54 220.95V218.63H394.63V220.91C396.123 221.004 397.572 221.449 398.86 222.21L397.8 224.78C396.821 224.202 395.736 223.825 394.61 223.67V227.23C396.92 227.78 399.47 228.57 399.45 231.52C399.47 233.69 397.87 235.56 394.59 235.94ZM392.59 226.69V223.69C391.48 223.94 391.04 224.54 391.03 225.23C391.02 225.92 391.63 226.39 392.55 226.69H392.59ZM396.16 231.75C396.16 231.02 395.56 230.62 394.66 230.3V233.18C395.65 233 396.11 232.42 396.12 231.75H396.16Z" fill="#66A7F7"/>
<path d="M387.77 207C387.827 205.142 388.242 203.312 388.99 201.61C388.921 203.467 388.507 205.294 387.77 207Z" fill="#66A7F7"/>
<path d="M388.7 214.14C388.693 211.917 388.914 209.698 389.36 207.52C389.643 205.315 390.145 203.145 390.86 201.04C390.648 203.247 390.314 205.44 389.86 207.61C389.594 209.806 389.206 211.986 388.7 214.14Z" fill="#66A7F7"/>
<path d="M396.86 208C396.172 205.902 395.818 203.708 395.81 201.5C396.236 202.523 396.499 203.606 396.59 204.71C396.849 205.786 396.94 206.896 396.86 208Z" fill="#66A7F7"/>
<path d="M387.57 192.28C389.711 194.265 391.452 196.641 392.7 199.28C391.722 198.22 390.836 197.079 390.05 195.87C389.125 194.744 388.296 193.543 387.57 192.28Z" fill="#66A7F7"/>
<path d="M391.12 189.12C391.685 190.79 392.146 192.493 392.5 194.22C393.014 195.905 393.415 197.622 393.7 199.36C392.919 197.773 392.344 196.093 391.99 194.36C391.471 192.659 391.179 190.897 391.12 189.12Z" fill="#66A7F7"/>
<path d="M405.28 238.72C406.12 237.697 406.718 236.497 407.03 235.21C407.159 233.89 406.992 232.557 406.54 231.31C406.54 231.31 406.92 231.63 407.22 232.31C407.604 233.243 407.719 234.265 407.55 235.26C407.378 236.259 406.931 237.19 406.26 237.95C405.74 238.55 405.32 238.77 405.28 238.72Z" fill="#66A7F7"/>
<path d="M380.05 231.6C380 231.6 379.71 231.39 379.42 230.86C379.046 230.153 378.869 229.359 378.91 228.56C378.938 227.762 379.176 226.986 379.6 226.31C379.93 225.8 380.24 225.58 380.29 225.62C379.764 226.525 379.467 227.544 379.425 228.59C379.383 229.636 379.598 230.676 380.05 231.62V231.6Z" fill="#66A7F7"/>
<path d="M399.33 202.25L386.8 202.17C386.582 202.17 386.367 202.127 386.166 202.043C385.965 201.96 385.783 201.837 385.63 201.683C385.476 201.529 385.355 201.346 385.273 201.145C385.19 200.943 385.149 200.728 385.15 200.51C385.151 200.292 385.196 200.077 385.28 199.877C385.365 199.677 385.489 199.495 385.644 199.343C385.799 199.19 385.983 199.07 386.185 198.989C386.387 198.908 386.602 198.867 386.82 198.87L399.35 198.94C399.568 198.941 399.784 198.986 399.984 199.07C400.185 199.155 400.368 199.278 400.521 199.433C400.674 199.588 400.795 199.772 400.877 199.974C400.96 200.176 401.001 200.392 401 200.61C400.995 201.049 400.816 201.467 400.503 201.774C400.19 202.082 399.768 202.253 399.33 202.25Z" fill="#66A7F7"/>
<path d="M70 210.7C69.9912 210.624 69.9912 210.546 70 210.47C70 210.29 70 210.08 70 209.81C70 209.2 70 208.36 70 207.27C70 205.05 70 201.86 69.92 197.83L70 198L21.35 198.1C21.46 197.99 21.1 198.35 21.59 197.85V210.7L21.35 210.46L56.02 210.57L66.25 210.64H69.02H69.74H70C69.9237 210.649 69.8464 210.649 69.77 210.64H69.08H66.36L56.19 210.71L21.35 210.82H21.1V197.85L21.35 197.6L70 197.7H70.15V197.85C70.15 201.92 70.09 205.14 70.07 207.38C70.07 208.45 70.07 209.29 70.07 209.88C70.07 210.14 70.07 210.35 70.07 210.52C70.0515 210.582 70.0281 210.642 70 210.7Z" fill="#66A7F7"/>
<path d="M76.58 197.83C76.58 197.83 76.58 197.74 76.58 197.59C76.58 197.44 76.58 197.18 76.58 196.9C76.58 196.27 76.58 195.41 76.58 194.32C76.58 192.07 76.58 188.88 76.49 184.96L76.66 185.14L47.43 185.21L47.68 184.96V191.57C47.68 193.72 47.68 195.81 47.68 197.81L47.44 197.57L68.35 197.69L74.45 197.75H76.09C76.2831 197.738 76.4769 197.738 76.67 197.75C76.4936 197.764 76.3164 197.764 76.14 197.75H74.55L68.55 197.81L47.48 197.93H47.25V197.69C47.25 195.69 47.25 193.6 47.25 191.45V185L47.5 184.75L76.73 184.82H76.91V185C76.91 189 76.84 192.19 76.82 194.47C76.82 195.54 76.82 196.39 76.82 197.01C76.7641 197.29 76.6838 197.564 76.58 197.83Z" fill="#66A7F7"/>
<path d="M361 227.9C360.996 227.823 360.996 227.747 361 227.67V227.01C361 226.4 361 225.56 361 224.48C361 222.25 360.95 219.06 360.91 215.03L361.06 215.18L312.41 215.28L312.66 215.03V221.55C312.66 223.7 312.66 225.81 312.66 227.88L312.42 227.64L347.09 227.75L357.33 227.82H360.09H360.82H361C361 227.82 360.93 227.82 360.78 227.82H360H357.29L347.11 227.88L312.27 227.99H312.03V227.74C312.03 225.673 312.03 223.563 312.03 221.41V214.89L312.28 214.64L360.93 214.74H361.09V215C361.09 219.07 361.03 222.29 361.01 224.53C361.01 225.6 361.01 226.44 361.01 227.03C361.01 227.29 361.01 227.5 361.01 227.67C361.01 227.84 361 227.91 361 227.9Z" fill="#66A7F7"/>
<path d="M420.16 41.65C420.153 41.5702 420.153 41.4898 420.16 41.41V40.75C420.16 40.15 420.16 39.3 420.16 38.22C420.16 36 420.16 32.8 420.08 28.77L420.23 28.93L371.51 29L371.75 28.76V41.65L371.51 41.4L406.18 41.51L416.41 41.58H419.18H419.9H420.16H419.93H419.24H416.52L406.35 41.65L371.51 41.76H371.26V28.78L371.51 28.53L420.16 28.62H420.31V28.77C420.31 32.84 420.25 36.07 420.23 38.31C420.23 39.38 420.23 40.21 420.23 40.81C420.23 41.07 420.23 41.28 420.23 41.44C420.211 41.5115 420.188 41.5816 420.16 41.65Z" fill="#66A7F7"/>
<path d="M228 304C228 304 228 303.91 228 303.76C228 303.61 228 303.37 228 303.1C228 302.5 228 301.65 228 300.57C228 298.35 228 295.15 227.92 291.13L228.07 291.28L179.42 291.37C179.53 291.26 179.17 291.62 179.67 291.13V297.65C179.67 299.79 179.67 301.91 179.67 303.98L179.43 303.73L214.1 303.84L224.33 303.91H227.1H227.83C227.913 303.902 227.997 303.902 228.08 303.91H227.86H227.16H224.45L214.27 303.98L179.43 304.09H179.19V304C179.19 301.93 179.19 299.81 179.19 297.67V291.15L179.44 290.9L228 291H228.15V291.15C228.15 295.21 228.09 298.44 228.07 300.68C228.07 301.75 228.07 302.58 228.07 303.18V303.81C228.054 303.876 228.031 303.94 228 304Z" fill="#66A7F7"/>
<path d="M234.57 291.1C234.563 291.017 234.563 290.933 234.57 290.85C234.57 290.67 234.57 290.44 234.57 290.17C234.57 289.54 234.57 288.67 234.57 287.59C234.57 285.33 234.51 282.14 234.47 278.23L234.65 278.4L205.42 278.47L205.66 278.23V284.84C205.66 286.99 205.66 289.08 205.66 291.08L205.43 290.84L226.34 290.95L232.43 291.02H234.07H234.66C234.484 291.034 234.306 291.034 234.13 291.02H232.53L226.53 291.08L205.46 291.19H205.22V290.96C205.22 288.96 205.22 286.87 205.22 284.72V278.11C205.16 278.11 205.69 277.64 205.47 277.86L234.7 277.93H234.88V278.11C234.88 282.11 234.8 285.29 234.78 287.58C234.78 288.65 234.78 289.49 234.78 290.12C234.78 290.75 234.58 291.11 234.57 291.1Z" fill="#66A7F7"/>
<path d="M82.28 386.27H37.64V398.08H82.28V386.27Z" fill="#EBEBEB"/>
<path d="M63.41 410.52C63.4056 410.45 63.4056 410.38 63.41 410.31C63.41 410.15 63.41 409.95 63.41 409.7C63.41 409.15 63.41 408.37 63.41 407.38C63.41 405.38 63.36 402.38 63.33 398.71L63.47 398.85L18.83 398.94C18.93 398.84 18.6 399.17 19.05 398.71V410.5L18.83 410.28L50.64 410.38L60.03 410.45H62.57H63.47H63.26H62.63H60.14L50.8 410.52L18.8 410.62H18.57V398.62C19.02 398.17 18.7 398.5 18.8 398.4L63.44 398.48H63.58V398.61C63.58 402.34 63.52 405.3 63.5 407.36C63.5 408.36 63.5 409.11 63.5 409.65C63.5 409.89 63.5 410.08 63.5 410.24C63.4851 410.338 63.4547 410.432 63.41 410.52Z" fill="#66A7F7"/>
<path d="M291.71 40.34H247.07V52.15H291.71V40.34Z" fill="#EBEBEB"/>
<path d="M272.84 64.59C272.833 64.5168 272.833 64.4432 272.84 64.37C272.84 64.21 272.84 64.02 272.84 63.77C272.84 63.21 272.84 62.44 272.84 61.44C272.84 59.44 272.84 56.44 272.77 52.78L272.91 52.91L228.19 53L228.42 52.78V58.78C228.42 60.78 228.42 62.69 228.42 64.59L228.2 64.36L260.02 64.47L269.41 64.53H271.95H272.61H272.85H272.64H272H269.51L260.17 64.6L228.17 64.7H228V64.48C228 62.58 228 60.64 228 58.67V52.67L228.23 52.44L272.88 52.53H273V52.67C273 56.4 272.95 59.36 272.93 61.41C272.93 62.41 272.93 63.16 272.93 63.71C272.93 63.95 272.93 64.14 272.93 64.29C272.93 64.44 272.84 64.59 272.84 64.59Z" fill="#66A7F7"/>
<path d="M167.08 125.97H122.44V137.78H167.08V125.97Z" fill="#EBEBEB"/>
<path d="M148.2 150.22C148.2 150.22 148.2 150.14 148.2 150C148.2 149.86 148.2 149.64 148.2 149.4C148.2 148.84 148.2 148.07 148.2 147.07C148.2 145.07 148.2 142.07 148.12 138.41L148.26 138.54L103.62 138.63C103.72 138.53 103.39 138.86 103.85 138.41V150.22L103.63 149.99L135.44 150.1L144.83 150.16H147.37H148H147.36H144.87L135.53 150.23L103.53 150.33H103.31V150.11C103.31 148.21 103.31 146.27 103.31 144.3V138.3L103.54 138.07L148.18 138.16H148.32V138.3C148.32 142.03 148.26 144.99 148.24 147.04C148.24 148.04 148.24 148.79 148.24 149.34C148.24 149.58 148.24 149.77 148.24 149.92C148.24 150.07 148.21 150.22 148.2 150.22Z" fill="#66A7F7"/>
<path d="M253.75 220.7H209.11V232.51H253.75V220.7Z" fill="#EBEBEB"/>
<path d="M464.99 89H420.35V100.81H464.99V89Z" fill="#EBEBEB"/>
<path d="M330.31 124.96H285.67V136.77H330.31V124.96Z" fill="#F5F5F5"/>
<path d="M113.15 28.95H68.51V40.76H113.15V28.95Z" fill="#F5F5F5"/>
<path d="M340.33 451.89C339.61 449.02 341.5 446.15 343.63 444.08C345.76 442.01 348.28 440.15 349.4 437.41C351.2 432.95 348.84 427.16 351.9 423.41C353.7 421.23 356.9 420.51 358.5 418.18C359.237 416.892 359.729 415.478 359.95 414.01C361.682 406.605 365.366 399.799 370.62 394.3C370.933 400.9 369.465 407.463 366.37 413.3C365.13 415.63 363.61 417.91 363.18 420.52C362.5 424.75 364.84 429.14 363.78 433.3C362.56 438.05 357.19 441.21 356.91 446.11C356.67 450.26 360.26 453.92 359.97 458.06C359.742 459.818 359.101 461.497 358.1 462.96C354.86 468.27 350.1 471.96 342.99 471.76L334.25 472.01L340.33 451.89Z" fill="#F5F5F5"/>
<path d="M332.48 472.31C331.679 472.43 330.864 472.409 330.07 472.25C329.106 472.097 328.158 471.853 327.24 471.52C325.972 471.071 324.789 470.412 323.74 469.57C323.107 469.059 322.615 468.394 322.31 467.64C322.048 466.795 321.913 465.915 321.91 465.03C321.9 464.084 321.837 463.139 321.72 462.2C321.557 461.201 321.201 460.243 320.67 459.38C319.67 457.57 317.95 455.84 317.41 453.38C316.87 450.92 317.27 448.38 317.69 445.72C318.11 443.06 318.52 440.24 317.53 437.51C316.54 434.78 314.71 432.29 313.77 429.2C312.83 426.11 313.29 422.74 313.11 419.43C313.061 417.753 312.684 416.102 312 414.57C311.3 413.02 310.33 411.57 309.57 409.92C308.04 406.62 307.79 402.92 307.38 399.23C307.193 397.377 306.997 395.513 306.79 393.64C306.668 391.746 306.353 389.87 305.85 388.04C305.268 386.195 304.58 384.386 303.79 382.62C303.375 381.708 303.04 380.761 302.79 379.79C302.647 378.796 302.557 377.794 302.52 376.79C302.443 374.786 302.534 372.779 302.79 370.79C303.04 368.79 303.41 366.79 303.64 364.79C303.64 364.67 303.64 364.55 303.64 364.44L303.69 364.04L304.05 364.22C305.9 365.172 307.502 366.541 308.73 368.22C309.932 369.859 310.895 371.66 311.59 373.57C313.03 377.33 313.54 381.27 314.25 385.03C314.778 388.744 315.974 392.332 317.78 395.62C318.73 397.19 319.88 398.62 320.89 400.14C321.965 401.628 322.695 403.336 323.03 405.14C323.52 408.85 321.47 412.08 321.87 415.36C322.069 416.967 322.604 418.514 323.44 419.9C324.23 421.31 325.15 422.61 326.03 423.9C326.927 425.177 327.706 426.533 328.36 427.95C328.965 429.34 329.32 430.826 329.41 432.34C329.6 435.29 329.17 438.08 329.41 440.72C329.637 443.236 330.357 445.683 331.53 447.92C332.53 450.08 333.74 452.03 334.71 453.92C335.2 454.86 335.65 455.79 336.02 456.71C336.368 457.604 336.62 458.533 336.77 459.48C337.01 461.138 337.01 462.822 336.77 464.48C336.523 466.79 335.645 468.987 334.23 470.83C334.016 471.103 333.778 471.358 333.52 471.59C333.346 471.772 333.152 471.934 332.94 472.07L332.44 472.42C333.066 471.93 333.636 471.374 334.14 470.76C335.499 468.913 336.331 466.732 336.55 464.45C336.751 462.814 336.724 461.158 336.47 459.53C336.312 458.606 336.057 457.701 335.71 456.83C335.34 455.93 334.89 455.01 334.39 454.07C333.39 452.2 332.23 450.26 331.16 448.07C329.956 445.794 329.212 443.303 328.97 440.74C328.76 438.04 329.18 435.24 328.97 432.36C328.894 430.898 328.555 429.462 327.97 428.12C327.33 426.72 326.564 425.381 325.68 424.12C324.8 422.82 323.86 421.52 323.05 420.12C322.177 418.676 321.618 417.064 321.41 415.39C321.01 411.9 323.05 408.64 322.55 405.2C322.218 403.474 321.512 401.843 320.48 400.42C319.48 398.92 318.33 397.5 317.35 395.89C315.496 392.51 314.275 388.819 313.75 385C313.03 381.22 312.52 377.32 311.11 373.64C310.437 371.777 309.497 370.022 308.32 368.43C307.144 366.823 305.61 365.512 303.84 364.6L304.24 364.38V364.73C304.01 366.73 303.63 368.78 303.39 370.73C303.128 372.719 303.038 374.726 303.12 376.73C303.17 377.73 303.23 378.73 303.37 379.64C303.628 380.579 303.963 381.495 304.37 382.38C305.172 384.164 305.867 385.993 306.45 387.86C306.961 389.719 307.28 391.626 307.4 393.55C307.6 395.43 307.79 397.29 307.99 399.14C308.38 402.82 308.64 406.49 310.11 409.68C310.84 411.26 311.81 412.73 312.53 414.33C313.229 415.908 313.616 417.605 313.67 419.33C313.85 422.71 313.39 426 314.28 429C315.17 432 317.07 434.47 318.01 437.3C318.95 440.13 318.58 443.1 318.15 445.71C317.72 448.32 317.28 450.9 317.83 453.23C318.38 455.56 319.97 457.29 321.01 459.16C321.553 460.058 321.916 461.053 322.08 462.09C322.189 463.04 322.246 463.994 322.25 464.95C322.242 465.81 322.363 466.666 322.61 467.49C322.897 468.208 323.357 468.844 323.95 469.34C324.977 470.171 326.132 470.83 327.37 471.29C328.272 471.639 329.207 471.896 330.16 472.06C330.748 472.169 331.343 472.232 331.94 472.25C332.27 472.3 332.48 472.31 332.48 472.31Z" fill="#66A7F7"/>
<path d="M305.44 369.17C305.482 369.256 305.512 369.347 305.53 369.44L305.72 370.22C305.88 370.91 306.08 371.95 306.4 373.22C306.72 374.49 307.53 375.99 308.19 377.8C308.85 379.61 309.59 381.68 310.24 384.01C310.89 386.34 311.47 388.94 312.07 391.72C312.585 394.684 313.51 397.562 314.82 400.27C315.53 401.69 316.32 403.14 316.96 404.71C317.572 406.32 317.985 407.999 318.19 409.71C318.603 413.286 319.208 416.838 320 420.35C321.71 427.53 323.34 434.35 324.83 440.58C326.32 446.81 327.72 452.37 328.88 457.08C330.04 461.79 330.88 465.54 331.56 468.21C331.86 469.49 332.09 470.51 332.26 471.21C332.33 471.53 332.39 471.79 332.43 472C332.445 472.089 332.445 472.181 332.43 472.27C332.387 472.188 332.357 472.101 332.34 472.01C332.28 471.8 332.2 471.55 332.11 471.23C331.92 470.5 331.65 469.5 331.31 468.23C330.62 465.57 329.65 461.79 328.45 457.14C327.25 452.49 325.85 446.86 324.29 440.67L319.41 420.44C318.612 416.932 318.005 413.384 317.59 409.81C317.403 408.134 317.007 406.488 316.41 404.91C315.8 403.37 315.01 401.91 314.3 400.5C312.987 397.748 312.065 394.827 311.56 391.82C310.98 389.03 310.43 386.45 309.8 384.12C309.17 381.79 308.51 379.71 307.8 377.91C307.09 376.11 306.41 374.62 306.09 373.28C305.77 371.94 305.64 370.92 305.5 370.22C305.45 369.89 305.41 369.63 305.37 369.42C305.382 369.334 305.406 369.25 305.44 369.17Z" fill="#66A7F7"/>
<path d="M330.94 472.33C325.25 468.9 323.67 458.59 326.08 452.41C328.49 446.23 332.7 440.58 333.38 433.97C333.9 428.89 332.27 423.66 333.48 418.7C335.12 412.01 341.69 406.85 341.66 399.96C341.66 396.1 339.46 392.45 339.66 388.58C339.9 383.85 343.56 380.11 345.84 375.95C349.32 369.58 349.59 362.03 350.84 354.87C352.09 347.71 354.84 340.06 361.2 336.58C362.11 342.66 363.68 346.84 363.13 355.07C362.94 358.07 359.47 363.68 358.96 370.16C358.66 374.03 358.44 377.91 358.19 381.79C357.94 385.67 357.67 389.4 356.29 392.93C355.24 395.63 353.56 398.07 352.78 400.86C351.3 406.11 353.17 411.81 351.97 417.13C350.97 421.64 347.81 425.5 347.15 430.07C346.21 436.5 350.33 443.2 348.15 449.31C347.08 452.31 344.56 454.78 343.83 457.92C343.27 460.35 343.83 462.92 343.34 465.38C342.51 469.32 334.97 472.38 330.96 472.07" fill="#66A7F7"/>
<path d="M359.55 342.6C359.561 342.716 359.561 342.834 359.55 342.95C359.55 343.2 359.47 343.53 359.41 343.95C359.28 344.82 359.12 346.11 358.82 347.78C358.52 349.45 357.61 351.34 356.91 353.61C356.21 355.88 355.43 358.49 354.77 361.42C354.11 364.35 353.54 367.58 352.95 371.07C352.464 374.829 351.454 378.501 349.95 381.98C349.14 383.8 348.23 385.62 347.54 387.56C346.873 389.554 346.457 391.623 346.3 393.72C345.955 398.181 345.371 402.621 344.55 407.02L339.48 432.39C337.84 440.16 336.36 447.17 335.11 453.06C333.86 458.95 332.83 463.66 332.11 466.98L331.27 470.76L331.03 471.76C331.014 471.873 330.984 471.984 330.94 472.09C330.925 471.977 330.925 471.863 330.94 471.75C330.98 471.503 331.04 471.17 331.12 470.75C331.29 469.85 331.54 468.57 331.85 466.95C332.53 463.62 333.49 458.86 334.67 452.95L339 432.29C340.55 424.49 342.25 415.92 344 406.92C344.819 402.537 345.406 398.114 345.76 393.67C345.919 391.528 346.349 389.414 347.04 387.38C347.74 385.38 348.66 383.57 349.48 381.76C351.22 378.19 351.84 374.46 352.48 370.99C353.12 367.52 353.68 364.26 354.37 361.33C355.06 358.4 355.83 355.77 356.6 353.51C357.37 351.25 358.24 349.36 358.6 347.73C358.96 346.1 359.13 344.79 359.3 343.93C359.38 343.52 359.44 343.19 359.49 342.93C359.503 342.819 359.523 342.709 359.55 342.6Z" fill="#EBEBEB"/>
<path d="M478.11 471.19C477.99 334.05 477.92 250.31 477.92 248.78C477.92 250.31 477.84 333.97 477.72 470.99L31.88 470.93V442.86H90.14V412.49H148.3V377H206.56V376.76C206.56 366.527 206.56 356.48 206.56 346.62H264.7V346.4C264.7 333.78 264.7 321.59 264.7 309.74H322.76H322.95V309.55C322.95 298.81 322.95 288.91 322.95 279.36H378.95H379.11V279.21C379.11 267.88 379.11 258.12 379.11 248.97L477.93 248.84L378.93 248.7H378.8V248.84C378.8 257.98 378.8 267.74 378.8 279.06H322.74H322.56V279.24C322.56 288.79 322.56 298.68 322.56 309.42H264.48H264.27V309.63C264.27 321.48 264.27 333.63 264.27 346.28H206.08V376.64H147.8V412H89.63V442.36H31.36V471.47H31.65L477.92 471.4H478.11V471.19Z" fill="#1E1E52"/>
<path d="M31.65 472H31.36C31.2274 472 31.1002 471.947 31.0064 471.854C30.9127 471.76 30.86 471.633 30.86 471.5V442.34C30.86 442.207 30.9127 442.08 31.0064 441.986C31.1002 441.893 31.2274 441.84 31.36 441.84H89.13V412C89.13 411.867 89.1827 411.74 89.2764 411.646C89.3702 411.553 89.4974 411.5 89.63 411.5H147.3V376.5C147.3 376.367 147.353 376.24 147.446 376.146C147.54 376.053 147.667 376 147.8 376H205.58V346.16C205.58 346.027 205.633 345.9 205.726 345.806C205.82 345.713 205.947 345.66 206.08 345.66H263.76V309.31C263.762 309.175 263.816 309.047 263.91 308.95C264.004 308.859 264.13 308.809 264.26 308.81H264.47H322.05V279C322.05 278.867 322.103 278.74 322.196 278.646C322.29 278.553 322.417 278.5 322.55 278.5H378.29V248.64C378.29 248.507 378.343 248.38 378.436 248.286C378.53 248.193 378.657 248.14 378.79 248.14H379L478 248.28H478.13H478.2C478.275 248.325 478.338 248.388 478.383 248.463C478.428 248.538 478.455 248.623 478.46 248.71C478.46 249.71 478.46 283.82 478.54 343.71L478.65 471.08V471.28C478.651 471.41 478.601 471.536 478.51 471.63C478.415 471.726 478.285 471.78 478.15 471.78H406.23L31.65 472ZM32.38 470.48L477.22 470.54C477.34 338.86 477.41 256.54 477.42 249.33L379.6 249.46V279.35C379.6 279.483 379.547 279.61 379.454 279.704C379.36 279.797 379.233 279.85 379.1 279.85H323.41V309.73C323.41 309.863 323.357 309.99 323.264 310.084C323.17 310.177 323.043 310.23 322.91 310.23H265.16V346.61C265.16 346.743 265.107 346.87 265.014 346.964C264.92 347.057 264.793 347.11 264.66 347.11H207.05V377C207.047 377.132 206.994 377.258 206.901 377.351C206.807 377.444 206.682 377.497 206.55 377.5H148.8V412.5C148.8 412.633 148.747 412.76 148.654 412.854C148.56 412.947 148.433 413 148.3 413H90.64V442.87C90.64 443.003 90.5873 443.13 90.4935 443.224C90.3998 443.317 90.2726 443.37 90.14 443.37H32.38V470.48Z" fill="#1E1E52"/>
<path d="M420.9 172.38C420.9 172.38 396.58 208.38 396.54 226.08C396.54 237.85 399.54 247.87 415.07 248.22C430.6 248.57 450.84 248.44 450.84 248.44C450.84 248.44 472.73 243.44 462.37 216.5C453.22 192.71 439.19 172.5 439.19 172.5L420.9 172.38Z" fill="#407BFF"/>
<path d="M449.12 149.15C448.86 147.39 446.72 146.62 444.94 146.65C438.7 146.75 433.33 152.07 427.09 151.75C423.17 151.56 419.76 149.16 416.16 147.6C415.302 147.182 414.372 146.934 413.42 146.87C412.943 146.843 412.466 146.931 412.029 147.126C411.593 147.32 411.209 147.617 410.91 147.99C410.03 149.23 410.58 150.94 411.16 152.35C414.05 159.25 418.84 166.1 422.31 172.74L440.36 173.48C440.306 165.905 442.847 158.54 447.56 152.61C448.38 151.59 449.31 150.44 449.12 149.15Z" fill="#407BFF"/>
<g opacity="0.3">
<path d="M432 228.06V231.74H428.71V228.16C425.79 228.048 422.959 227.12 420.54 225.48L422.37 221.48C424.248 222.81 426.44 223.626 428.73 223.85V218.36C425.09 217.46 421.03 216.22 421.05 211.52C421.05 208.03 423.62 205.06 428.82 204.52V200.87H432.11V204.45C434.456 204.586 436.737 205.271 438.77 206.45L437.1 210.45C435.564 209.546 433.865 208.955 432.1 208.71V214.3C435.75 215.17 439.75 216.41 439.72 221.04C439.71 224.52 437.19 227.46 432 228.06ZM428.8 213.52V208.85C427.06 209.23 426.36 210.18 426.36 211.27C426.36 212.36 427.39 213.05 428.83 213.52H428.8ZM434.41 221.47C434.41 220.32 433.47 219.69 432.06 219.19V223.72C433.7 223.37 434.43 222.52 434.44 221.47H434.41Z" fill="#1E1E52"/>
</g>
<path d="M421.32 182.5C421.381 181.047 421.616 179.607 422.02 178.21C422.258 176.774 422.664 175.371 423.23 174.03C423.169 175.483 422.934 176.923 422.53 178.32C422.294 179.757 421.888 181.16 421.32 182.5Z" fill="#1E1E52"/>
<path d="M422.78 193.79C422.746 192.766 422.81 191.742 422.97 190.73C423.17 188.85 423.5 186.26 423.97 183.41C424.44 180.56 424.97 177.99 425.38 176.15C425.553 175.127 425.821 174.123 426.18 173.15C426.114 174.16 425.967 175.164 425.74 176.15C425.39 178.15 424.96 180.66 424.49 183.42C424.02 186.18 423.65 188.68 423.33 190.71C423.232 191.75 423.048 192.78 422.78 193.79Z" fill="#1E1E52"/>
<path d="M435.61 184.15C435.081 182.5 434.719 180.802 434.53 179.08C434.168 177.387 433.974 175.662 433.95 173.93C434.473 175.579 434.825 177.278 435 179C435.376 180.692 435.58 182.417 435.61 184.15Z" fill="#1E1E52"/>
<path d="M421 159.42C422.663 160.979 424.148 162.716 425.43 164.6C426.845 166.388 428.066 168.322 429.07 170.37C428.94 170.45 427.24 167.93 425.01 164.91C422.78 161.89 420.9 159.52 421 159.42Z" fill="#1E1E52"/>
<path d="M426.58 154.46C426.876 155.219 427.094 156.007 427.23 156.81C427.63 158.46 428.09 160.38 428.61 162.51C429.13 164.64 429.67 166.51 430.1 168.18C430.362 168.953 430.546 169.75 430.65 170.56C430.263 169.841 429.961 169.079 429.75 168.29C429.27 166.86 428.67 164.87 428.1 162.64C427.53 160.41 427.1 158.37 426.87 156.88C426.678 156.088 426.58 155.275 426.58 154.46Z" fill="#1E1E52"/>
<path d="M448.84 232.42C448.78 232.36 449.34 231.89 450.01 230.96C450.887 229.776 451.482 228.408 451.75 226.96C451.984 225.493 451.881 223.992 451.45 222.57C451.11 221.48 450.75 220.85 450.82 220.81C451.282 221.267 451.625 221.83 451.82 222.45C452.391 223.909 452.555 225.497 452.292 227.042C452.03 228.587 451.351 230.031 450.33 231.22C449.938 231.735 449.426 232.146 448.84 232.42Z" fill="#1E1E52"/>
<path d="M409.19 221.24C409.14 221.24 408.72 220.87 408.29 220.03C407.74 218.927 407.482 217.701 407.54 216.47C407.575 215.238 407.919 214.035 408.54 212.97C409.03 212.17 409.49 211.8 409.54 211.84C409.59 211.88 409.26 212.35 408.87 213.15C408.369 214.194 408.086 215.33 408.04 216.487C407.993 217.644 408.184 218.799 408.6 219.88C408.835 220.316 409.033 220.771 409.19 221.24Z" fill="#1E1E52"/>
<g opacity="0.3">
<path d="M420.42 174.34L419.76 174.8C421.423 175.465 423.199 175.804 424.99 175.8C424.799 179.574 424.391 183.333 423.77 187.06C425.35 183.387 426.753 179.643 427.98 175.83C431.784 176.341 435.655 175.848 439.21 174.4C432.952 174.04 426.68 174.02 420.42 174.34Z" fill="#1E1E52"/>
</g>
<path d="M439.744 169.866L419.615 169.747C418.295 169.739 417.219 170.803 417.211 172.123L417.208 172.543C417.2 173.863 418.264 174.939 419.584 174.947L439.714 175.066C441.034 175.074 442.11 174.01 442.118 172.69L442.12 172.271C442.128 170.951 441.064 169.874 439.744 169.866Z" fill="#1E1E52"/>
<path d="M142.07 101.39C141.21 95.99 144.66 90.57 143.66 85.19C143.203 82.7694 141.882 80.5973 139.943 79.0779C138.004 77.5584 135.58 76.7951 133.12 76.93C133.87 72.93 131.12 68.8 127.29 67.32C123.46 65.84 118.85 66.72 115.29 68.88C112.62 70.48 110.35 72.73 107.54 74.09C104.99 75.32 102.11 75.77 99.54 77.09C98.7796 77.4858 98.0595 77.9547 97.39 78.49C97.01 78.69 96.63 78.89 96.26 79.12C95.4506 79.6251 94.7052 80.2261 94.04 80.91C92.9325 81.7052 92.0448 82.7684 91.46 84C90.17 86.93 90.91 90.78 88.65 93.06C86.79 94.94 83.65 94.91 81.65 96.66C78.82 99.19 79.65 104.12 77.18 106.97C75.35 109.03 72.25 109.38 69.51 109.09C66.77 108.8 64.03 108.01 61.3 108.35C60.36 108.47 59.3 108.85 59.03 109.76C58.9775 110.163 59.0119 110.572 59.131 110.96C59.25 111.348 59.4509 111.706 59.72 112.01L63.34 117.42L63.84 118.15C63.8439 118.19 63.8439 118.23 63.84 118.27C66.4467 122.23 69.0533 126.187 71.66 130.14L80.79 124.56C81.47 128.08 75.79 130.21 76.03 133.79C76.2532 135.077 76.8719 136.261 77.8 137.18L85.8 146.86C86.73 147.99 87.8 149.2 89.22 149.48C91.28 149.88 93.14 148.27 94.62 146.79C99.17 142.28 104.08 137.79 110.21 135.79C116.34 133.79 123.34 134.46 128.26 130.52C131.09 128.25 132.7 124.81 135.26 122.24C138.62 118.83 143.87 116.47 144.59 111.76C145 108.26 142.63 105 142.07 101.39Z" fill="#1E1E52"/>
<path d="M104.15 93.36L102.87 134.36C102.811 136.018 103.091 137.67 103.692 139.217C104.293 140.763 105.203 142.17 106.367 143.353C107.53 144.536 108.922 145.47 110.458 146.097C111.994 146.724 113.641 147.031 115.3 147C121.81 146.88 126.58 144.83 126.89 135.22C126.99 132.13 127.3 128.49 127.33 128.22C127.33 128.22 137.73 126.61 138.81 116.3C139.33 111.3 139.81 102.92 139.88 93.55C139.963 88.6777 138.2 83.9543 134.945 80.328C131.69 76.7018 127.183 74.4412 122.33 74L121.33 73.91C110.54 73.59 104.21 82.56 104.15 93.36Z" fill="#FFBE9D"/>
<path d="M127.42 128.19C122.648 127.841 118.088 126.08 114.32 123.13C114.32 123.13 116.82 130.85 127.2 130.87L127.42 128.19Z" fill="white"/>
<path d="M136.84 102.48C136.807 102.864 136.625 103.22 136.334 103.472C136.043 103.724 135.665 103.852 135.28 103.83C135.091 103.827 134.904 103.787 134.731 103.712C134.558 103.636 134.401 103.526 134.271 103.389C134.14 103.253 134.039 103.091 133.972 102.914C133.904 102.737 133.873 102.549 133.88 102.36C133.913 101.976 134.095 101.62 134.386 101.368C134.677 101.116 135.055 100.988 135.44 101.01C135.629 101.011 135.817 101.051 135.991 101.126C136.165 101.201 136.322 101.31 136.452 101.448C136.583 101.585 136.685 101.747 136.751 101.924C136.818 102.102 136.848 102.291 136.84 102.48Z" fill="#1E1E52"/>
<path d="M137.29 99C137.09 99.17 136.05 98.24 134.46 98.1C132.87 97.96 131.64 98.65 131.46 98.44C131.28 98.23 131.6 98.01 132.14 97.69C132.873 97.2794 133.714 97.1015 134.55 97.18C135.381 97.2672 136.162 97.6175 136.78 98.18C137.25 98.57 137.38 98.93 137.29 99Z" fill="#1E1E52"/>
<path d="M121.77 101.45C121.742 101.834 121.563 102.191 121.273 102.444C120.983 102.697 120.604 102.825 120.22 102.8C120.031 102.8 119.844 102.762 119.67 102.688C119.496 102.614 119.339 102.505 119.208 102.369C119.077 102.233 118.976 102.071 118.909 101.894C118.842 101.717 118.812 101.529 118.82 101.34C118.851 100.954 119.031 100.596 119.323 100.342C119.614 100.088 119.994 99.9579 120.38 99.98C120.569 99.9825 120.755 100.023 120.928 100.099C121.1 100.174 121.256 100.284 121.386 100.421C121.515 100.558 121.616 100.72 121.682 100.897C121.748 101.073 121.778 101.262 121.77 101.45Z" fill="#1E1E52"/>
<path d="M122.08 98.19C121.88 98.37 120.84 97.44 119.25 97.3C117.66 97.16 116.43 97.84 116.25 97.63C116.07 97.42 116.38 97.21 116.93 96.89C117.659 96.4784 118.497 96.3004 119.33 96.38C120.159 96.4725 120.939 96.8222 121.56 97.38C122 97.75 122.18 98.12 122.08 98.19Z" fill="#1E1E52"/>
<path d="M126.32 109.49C127.177 109.306 128.054 109.229 128.93 109.26C129.34 109.26 129.73 109.21 129.83 108.94C129.9 108.526 129.844 108.102 129.67 107.72C129.38 106.72 129.07 105.64 128.75 104.52C127.49 99.98 126.62 96.26 126.75 96.21C126.88 96.16 128.11 99.8 129.37 104.35C129.67 105.47 129.96 106.53 130.23 107.56C130.442 108.072 130.463 108.643 130.29 109.17C130.219 109.308 130.117 109.428 129.993 109.52C129.868 109.612 129.723 109.674 129.57 109.7C129.341 109.729 129.109 109.729 128.88 109.7C128.021 109.739 127.161 109.669 126.32 109.49Z" fill="#1E1E52"/>
<path d="M122 91.92C121.8 92.33 120.24 91.92 118.36 91.92C116.48 91.92 114.91 92.25 114.71 91.83C114.63 91.63 114.94 91.26 115.59 90.92C116.479 90.419 117.512 90.2323 118.52 90.39C119.427 90.3609 120.327 90.5568 121.14 90.96C121.8 91.35 122.1 91.73 122 91.92Z" fill="#1E1E52"/>
<path d="M138.33 93C137.97 93.33 136.72 92.86 135.18 92.72C133.64 92.58 132.32 92.72 132.05 92.33C131.94 92.14 132.17 91.79 132.77 91.5C133.584 91.1336 134.484 90.9987 135.37 91.11C136.256 91.1838 137.104 91.5023 137.82 92.03C138.34 92.43 138.49 92.81 138.33 93Z" fill="#1E1E52"/>
<path d="M126.46 114.61C126.42 114.286 126.332 113.969 126.2 113.67C126.034 113.337 125.789 113.051 125.485 112.836C125.181 112.621 124.829 112.485 124.46 112.44C123.718 112.357 122.972 112.565 122.38 113.02C122.12 113.214 121.904 113.462 121.747 113.747C121.59 114.031 121.495 114.346 121.47 114.67C121.465 114.844 121.496 115.018 121.56 115.18C121.714 115.637 121.977 116.051 122.325 116.385C122.673 116.719 123.097 116.964 123.56 117.1C124.027 117.224 124.519 117.211 124.979 117.062C125.438 116.913 125.845 116.634 126.15 116.26C126.326 116.038 126.446 115.778 126.5 115.5C126.536 115.203 126.523 114.902 126.46 114.61Z" fill="white"/>
<path d="M104.87 107.27C104.855 107.265 104.838 107.264 104.822 107.267C104.807 107.27 104.792 107.276 104.779 107.286C104.766 107.296 104.756 107.309 104.749 107.323C104.742 107.338 104.739 107.354 104.74 107.37C104.742 107.386 104.747 107.401 104.756 107.414C104.764 107.427 104.776 107.438 104.79 107.445C104.803 107.453 104.819 107.458 104.834 107.459C104.85 107.459 104.866 107.456 104.88 107.45C104.893 107.44 104.903 107.427 104.91 107.412C104.917 107.397 104.92 107.381 104.92 107.365C104.92 107.349 104.917 107.333 104.91 107.318C104.903 107.303 104.893 107.29 104.88 107.28C104.867 107.271 104.851 107.266 104.835 107.266C104.819 107.266 104.803 107.271 104.79 107.28" fill="#1E1E52"/>
<path d="M105.05 106.84C105.035 106.835 105.018 106.834 105.002 106.837C104.987 106.84 104.972 106.846 104.959 106.856C104.946 106.866 104.936 106.879 104.929 106.893C104.922 106.908 104.919 106.924 104.92 106.94C104.921 106.956 104.926 106.971 104.935 106.985C104.943 106.998 104.955 107.009 104.97 107.016C104.984 107.023 105 107.026 105.016 107.025C105.031 107.024 105.047 107.019 105.06 107.01C105.072 107.001 105.082 106.989 105.089 106.975C105.096 106.961 105.1 106.946 105.1 106.93C105.1 106.914 105.096 106.899 105.089 106.885C105.082 106.871 105.072 106.859 105.06 106.85C105.047 106.841 105.031 106.836 105.015 106.836C104.999 106.836 104.983 106.841 104.97 106.85" fill="#1E1E52"/>
<path d="M127.78 115.41C127.78 115.53 127.36 115.73 126.58 115.8C125.537 115.891 124.491 115.665 123.58 115.15C122.663 114.62 121.957 113.79 121.58 112.8C121.31 112.07 121.33 111.58 121.45 111.54C121.74 111.42 122.32 113.26 124.08 114.28C124.857 114.7 125.704 114.975 126.58 115.09C127.31 115.21 127.77 115.26 127.78 115.41Z" fill="#1E1E52"/>
<path d="M99.71 102.06C97.92 93.56 99.77 84.06 105.56 77.63C111.35 71.2 121.24 68.28 129.25 71.63C130.395 72.0488 131.423 72.7344 132.25 73.63C132.659 74.0892 132.943 74.646 133.074 75.2467C133.206 75.8475 133.18 76.472 133 77.06C132.32 78.87 130 79.45 128.11 79.41C126.22 79.37 124.11 78.98 122.4 79.84C119.4 81.36 119.12 85.69 116.85 88.23C115.74 89.49 114.15 90.23 113.12 91.6C110.35 95.19 112.28 97.6 110.38 101.71C109.85 102.85 107.74 103.78 106.48 103.87C105.22 103.96 106.22 104.01 103.59 103.54L99.71 102.06Z" fill="#1E1E52"/>
<path d="M107.14 104C106.97 103.9 100.37 101.07 99.74 108.08C99.11 115.09 106.29 114.28 106.32 114.08C106.35 113.88 107.14 104 107.14 104Z" fill="#FFBE9D"/>
<path d="M104.42 111.23C104.42 111.23 104.29 111.3 104.07 111.38C103.77 111.477 103.444 111.456 103.16 111.32C102.729 110.995 102.394 110.559 102.19 110.059C101.985 109.56 101.92 109.014 102 108.48C102.034 107.877 102.201 107.29 102.49 106.76C102.577 106.548 102.714 106.36 102.887 106.211C103.061 106.061 103.268 105.955 103.49 105.9C103.633 105.877 103.781 105.904 103.906 105.977C104.032 106.05 104.129 106.164 104.18 106.3C104.25 106.51 104.18 106.64 104.18 106.66C104.18 106.68 104.35 106.56 104.31 106.26C104.29 106.084 104.208 105.921 104.08 105.8C103.992 105.717 103.889 105.653 103.775 105.611C103.661 105.57 103.541 105.553 103.42 105.56C103.123 105.593 102.84 105.703 102.598 105.878C102.356 106.054 102.164 106.288 102.04 106.56C101.691 107.143 101.489 107.802 101.45 108.48C101.37 109.9 101.97 111.28 102.96 111.67C103.145 111.741 103.343 111.769 103.54 111.754C103.737 111.738 103.929 111.679 104.1 111.58C104.39 111.4 104.44 111.24 104.42 111.23Z" fill="white"/>
<path d="M61.82 104.84C62.0678 104.902 62.3116 104.979 62.55 105.07C63.02 105.23 63.71 105.49 64.61 105.75C65.6993 106.08 66.8318 106.245 67.97 106.24C69.4469 106.215 70.866 105.661 71.97 104.68C73.19 103.53 73.48 101.63 73.87 99.68C74.0433 98.6366 74.4278 97.6396 75 96.75C75.7016 95.8158 76.737 95.1888 77.89 95C79.0252 94.8004 80.1701 94.6602 81.32 94.58C82.4725 94.4978 83.5767 94.0846 84.5 93.39C85.3997 92.5946 86.087 91.5876 86.5 90.46C86.9316 89.2793 87.2661 88.0652 87.5 86.83C87.7566 85.5604 88.1523 84.3229 88.68 83.14C89.2213 81.9705 90.0719 80.9711 91.14 80.25C93.2006 79.043 95.5243 78.3565 97.91 78.25C100.009 78.1413 102.087 77.782 104.1 77.18C105.794 76.5187 107.323 75.4947 108.58 74.18C109.78 73 110.82 71.87 111.86 71C112.738 70.2368 113.726 69.6098 114.79 69.14C115.466 68.8462 116.185 68.6671 116.92 68.61C117.172 68.5778 117.428 68.5778 117.68 68.61C116.71 68.6641 115.758 68.8946 114.87 69.29C113.844 69.7853 112.894 70.4252 112.05 71.19C111.05 72.06 110.05 73.19 108.83 74.41C107.562 75.7962 105.996 76.8766 104.25 77.57C102.219 78.1927 100.121 78.5687 98 78.69C95.6934 78.8175 93.4524 79.5039 91.47 80.69C90.4791 81.3664 89.6909 82.2998 89.19 83.39C88.661 84.5248 88.2618 85.7157 88 86.94C87.7672 88.2016 87.4327 89.4423 87 90.65C86.5539 91.8551 85.8109 92.9282 84.84 93.77C83.8471 94.5257 82.6548 94.9741 81.41 95.06C80.23 95.2 79.08 95.22 78.02 95.45C76.987 95.6152 76.0566 96.1698 75.42 97C74.8751 97.8401 74.5076 98.7827 74.34 99.77C74.164 100.718 73.937 101.656 73.66 102.58C73.4045 103.464 72.9298 104.269 72.28 104.92C71.0927 105.964 69.5607 106.53 67.98 106.51C66.8163 106.492 65.6624 106.293 64.56 105.92C63.65 105.63 62.97 105.34 62.51 105.15C62.271 105.068 62.0401 104.964 61.82 104.84Z" fill="#1E1E52"/>
<path d="M114.23 368.71L104.73 398.06L143.33 410.68C144.26 407.12 126.59 393.61 126.59 393.61L133.5 375.06L114.23 368.71Z" fill="#407BFF"/>
<g opacity="0.6">
<path d="M115.17 388.12C114.973 388.106 114.775 388.13 114.588 388.192C114.4 388.254 114.227 388.352 114.077 388.482C113.928 388.611 113.805 388.768 113.716 388.944C113.628 389.121 113.574 389.313 113.56 389.51C113.546 389.707 113.57 389.905 113.632 390.092C113.694 390.28 113.792 390.453 113.922 390.603C114.051 390.752 114.208 390.875 114.384 390.964C114.561 391.052 114.753 391.106 114.95 391.12C115.368 391.149 115.781 391.017 116.104 390.751C116.428 390.485 116.637 390.105 116.69 389.69C116.652 389.271 116.459 388.881 116.148 388.598C115.837 388.315 115.431 388.158 115.01 388.16" fill="white"/>
</g>
<g opacity="0.6">
<path d="M104.73 398.06L105.81 395.14L142.42 408.33C142.42 408.33 143.9 409.6 143.33 410.68L104.73 398.06Z" fill="white"/>
</g>
<path d="M127.28 393.62C127.21 393.8 126.28 393.57 125.12 393.84C123.96 394.11 123.27 394.7 123.12 394.57C122.97 394.44 123.59 393.51 124.95 393.2C126.31 392.89 127.37 393.47 127.28 393.62Z" fill="#1E1E52"/>
<path d="M130.8 396.53C130.8 396.72 129.87 396.75 128.98 397.3C128.09 397.85 127.65 398.57 127.46 398.51C127.27 398.45 127.46 397.39 128.61 396.73C129.76 396.07 130.86 396.36 130.8 396.53Z" fill="#1E1E52"/>
<path d="M131.59 401.86C131.41 401.86 131.44 400.86 132.25 400.05C133.06 399.24 134.06 399.13 134.09 399.3C134.12 399.47 133.41 399.82 132.76 400.5C132.11 401.18 131.79 401.9 131.59 401.86Z" fill="#1E1E52"/>
<path d="M128.35 389.22C128.22 389.35 127.44 388.82 126.35 388.54C125.26 388.26 124.35 388.31 124.28 388.13C124.21 387.95 125.28 387.57 126.51 387.91C127.74 388.25 128.49 389.11 128.35 389.22Z" fill="#1E1E52"/>
<path d="M128.86 384.59C128.172 384.546 127.507 384.326 126.93 383.95C126.273 383.608 125.658 383.188 125.1 382.7C124.77 382.414 124.46 382.107 124.17 381.78C123.992 381.597 123.844 381.388 123.73 381.16C123.639 380.994 123.612 380.801 123.654 380.616C123.697 380.432 123.805 380.269 123.96 380.16C124.104 380.06 124.27 379.995 124.443 379.971C124.617 379.947 124.794 379.963 124.96 380.02C125.206 380.093 125.439 380.205 125.65 380.35C126.03 380.581 126.391 380.842 126.73 381.13C127.285 381.617 127.76 382.187 128.14 382.82C128.78 383.9 128.87 384.66 128.79 384.68C128.71 384.7 128.43 384.01 127.79 383.06C127.378 382.508 126.897 382.011 126.36 381.58C126.045 381.327 125.711 381.1 125.36 380.9C124.99 380.66 124.64 380.54 124.48 380.68C124.32 380.82 124.4 380.76 124.48 380.9C124.571 381.063 124.681 381.215 124.81 381.35C125.069 381.665 125.35 381.963 125.65 382.24C126.16 382.714 126.709 383.146 127.29 383.53C127.835 383.85 128.359 384.204 128.86 384.59Z" fill="#1E1E52"/>
<path d="M128.53 384.77C128.334 384.137 128.358 383.457 128.6 382.84C128.791 382.149 129.106 381.498 129.53 380.92C129.777 380.576 130.063 380.261 130.38 379.98C130.571 379.769 130.813 379.611 131.082 379.52C131.352 379.429 131.64 379.408 131.92 379.46C132.088 379.515 132.238 379.616 132.351 379.753C132.464 379.889 132.537 380.054 132.56 380.23C132.596 380.472 132.596 380.718 132.56 380.96C132.491 381.39 132.353 381.805 132.15 382.19C131.82 382.847 131.324 383.405 130.71 383.81C130.171 384.248 129.482 384.46 128.79 384.4C128.79 384.29 129.52 384.16 130.4 383.4C130.904 382.99 131.308 382.47 131.58 381.88C131.737 381.545 131.842 381.187 131.89 380.82C131.96 380.41 131.89 380.05 131.74 380.04C131.577 380.036 131.415 380.067 131.265 380.131C131.115 380.194 130.98 380.29 130.87 380.41C130.074 381.095 129.462 381.968 129.09 382.95C128.66 384 128.64 384.77 128.53 384.77Z" fill="#1E1E52"/>
<path d="M70.1 353.61L47 374L73.8 404.52C76.41 401.93 68.09 381.3 68.09 381.3L83.48 368.86L70.1 353.61Z" fill="#407BFF"/>
<g opacity="0.6">
<path d="M61 370.8C60.6738 370.576 60.2754 370.484 59.8843 370.542C59.4931 370.599 59.138 370.802 58.89 371.11C58.6835 371.451 58.6111 371.857 58.6869 372.249C58.7626 372.641 58.9811 372.99 59.3 373.23C59.6454 373.467 60.068 373.564 60.4821 373.501C60.8963 373.437 61.2709 373.219 61.53 372.89C61.7101 372.51 61.7412 372.076 61.6172 371.675C61.4931 371.273 61.2229 370.932 60.86 370.72" fill="white"/>
</g>
<g opacity="0.6">
<path d="M47 374L49.42 372L74.21 402C74.21 402 74.84 403.85 73.8 404.49L47 374Z" fill="white"/>
</g>
<path d="M68.63 381.69C68.49 381.81 67.77 381.12 66.63 380.79C65.49 380.46 64.63 380.58 64.53 380.39C64.43 380.2 65.53 379.72 66.8 380.15C68.07 380.58 68.79 381.61 68.63 381.69Z" fill="#1E1E52"/>
<path d="M70.19 386C70.08 386.15 69.27 385.72 68.19 385.73C67.11 385.74 66.39 386.15 66.27 386C66.15 385.85 66.86 385.06 68.15 385.06C69.44 385.06 70.32 385.87 70.19 386Z" fill="#1E1E52"/>
<path d="M68.15 391C68.01 390.89 68.53 390.07 69.64 389.77C70.75 389.47 71.64 389.91 71.64 390.08C71.64 390.25 70.79 390.17 69.88 390.43C68.97 390.69 68.3 391.11 68.15 391Z" fill="#1E1E52"/>
<path d="M71.8 378.45C71.62 378.5 71.21 377.65 70.42 376.85C69.63 376.05 68.8 375.62 68.85 375.44C68.9 375.26 69.96 375.44 70.85 376.39C71.74 377.34 72 378.43 71.8 378.45Z" fill="#1E1E52"/>
<path d="M74.6 374.73C74.54 374.73 73.94 374.27 73.26 373.19C72.8726 372.561 72.5573 371.89 72.32 371.19C72.1853 370.773 72.0751 370.349 71.99 369.92C71.9365 369.674 71.9163 369.422 71.93 369.17C71.9406 368.987 72.0156 368.813 72.1419 368.679C72.2681 368.546 72.4374 368.461 72.62 368.44C72.7881 368.431 72.9562 368.459 73.1119 368.523C73.2676 368.587 73.407 368.685 73.52 368.81C73.6898 369.002 73.8312 369.218 73.94 369.45C74.1565 369.838 74.3341 370.247 74.47 370.67C74.7019 371.374 74.8234 372.109 74.83 372.85C74.83 374.1 74.52 374.8 74.44 374.77C74.36 374.74 74.44 374.01 74.36 372.85C74.2894 372.166 74.1315 371.494 73.89 370.85C73.7468 370.471 73.5764 370.104 73.38 369.75C73.17 369.35 72.93 369.08 72.72 369.11C72.51 369.14 72.62 369.11 72.59 369.29C72.5632 369.472 72.5632 369.658 72.59 369.84C72.6555 370.242 72.7457 370.639 72.86 371.03C73.0526 371.718 73.3069 372.388 73.62 373.03C73.9876 373.572 74.3151 374.14 74.6 374.73Z" fill="#1E1E52"/>
<path d="M74.22 374.71C74.16 374.71 74.4 373.94 75.22 373.09C75.7352 372.59 76.3387 372.19 77 371.91C77.3925 371.742 77.8013 371.614 78.22 371.53C78.4922 371.448 78.7806 371.437 79.0586 371.496C79.3365 371.556 79.5949 371.684 79.81 371.87C79.9216 372.008 79.9943 372.174 80.0207 372.35C80.0471 372.525 80.0261 372.705 79.96 372.87C79.8655 373.097 79.7337 373.307 79.57 373.49C79.2845 373.825 78.9468 374.112 78.57 374.34C77.9506 374.732 77.2416 374.959 76.51 375C75.8076 375.108 75.0909 374.939 74.51 374.53C75.1362 374.563 75.7638 374.563 76.39 374.53C77.0323 374.436 77.6446 374.197 78.18 373.83C78.4829 373.614 78.7553 373.359 78.99 373.07C79.25 372.75 79.4 372.42 79.26 372.32C79.1128 372.227 78.9466 372.168 78.7736 372.147C78.6005 372.126 78.4251 372.144 78.26 372.2C77.8812 372.269 77.5096 372.373 77.15 372.51C76.5334 372.757 75.9571 373.094 75.44 373.51C74.71 374.15 74.32 374.77 74.22 374.71Z" fill="#1E1E52"/>
<path d="M142.53 187.11C142.53 187.11 144.48 183.48 145.33 181.71C146.18 179.94 151.95 176.71 151.95 176.71L158.41 170.55C158.666 170.932 158.831 171.368 158.892 171.824C158.952 172.28 158.907 172.744 158.76 173.18C158.14 174.81 157.76 176.18 157.46 175.45C157.46 175.45 161.96 174.69 162.81 175.95C163.31 176.699 163.575 177.58 163.57 178.48L163.14 182.36C163.14 182.36 163.57 185.65 162.14 187.09C162.011 188.123 161.692 189.123 161.2 190.04C159.372 191.402 157.476 192.67 155.52 193.84L147.45 196.5L142.54 187.5" fill="#FFBE9D"/>
<path d="M162.65 178.75C161.779 179.166 160.872 179.501 159.94 179.75L156.94 180.67C155.719 181.166 154.407 181.395 153.09 181.34C152.71 181.294 152.352 181.136 152.063 180.884C151.774 180.633 151.568 180.3 151.47 179.93C151.399 179.589 151.409 179.237 151.502 178.901C151.594 178.565 151.765 178.256 152 178C152.786 177.247 153.766 176.727 154.83 176.5C155.69 176.26 156.38 176.09 156.83 175.92C157.28 175.75 157.54 175.65 157.56 175.69C157.58 175.73 157.36 175.89 156.91 176.11C156.259 176.397 155.591 176.644 154.91 176.85C153.938 177.106 153.05 177.609 152.33 178.31C152.153 178.513 152.025 178.753 151.956 179.014C151.886 179.274 151.878 179.546 151.93 179.81C152.011 180.079 152.17 180.318 152.387 180.497C152.604 180.675 152.87 180.784 153.15 180.81C154.382 180.832 155.606 180.622 156.76 180.19L159.76 179.37C160.701 179.071 161.669 178.863 162.65 178.75Z" fill="white"/>
<path d="M162.36 183C162.3 182.799 162.277 182.589 162.29 182.38L162.41 182.46C161.8 182.75 160.63 183.24 159.1 183.85C158.255 184.215 157.386 184.522 156.5 184.77C155.958 184.903 155.39 184.882 154.86 184.71C154.561 184.614 154.295 184.439 154.088 184.203C153.882 183.967 153.744 183.679 153.69 183.37C153.655 182.989 153.717 182.606 153.871 182.256C154.025 181.906 154.265 181.601 154.57 181.37C155.093 180.98 155.669 180.667 156.28 180.44C157.269 180.019 158.293 179.684 159.34 179.44C160.046 179.271 160.765 179.164 161.49 179.12C161.751 179.071 162.019 179.071 162.28 179.12C162.28 179.21 161.16 179.26 159.43 179.76C158.406 180.056 157.403 180.424 156.43 180.86C155.871 181.086 155.344 181.381 154.86 181.74C154.625 181.918 154.438 182.153 154.315 182.422C154.193 182.69 154.14 182.985 154.16 183.28C154.202 183.498 154.303 183.7 154.45 183.866C154.598 184.031 154.788 184.154 155 184.22C155.439 184.366 155.911 184.384 156.36 184.27C157.226 184.044 158.077 183.767 158.91 183.44C160.45 182.89 161.65 182.44 162.3 182.29H162.43V182.42C162.43 182.76 162.39 183 162.36 183Z" fill="white"/>
<path d="M162.54 185.8C161.768 186.153 160.965 186.431 160.14 186.63L157.5 187.39C156.99 187.52 156.5 187.68 155.92 187.81C155.615 187.881 155.301 187.901 154.99 187.87C154.803 187.852 154.623 187.792 154.462 187.695C154.301 187.598 154.163 187.467 154.06 187.31C153.916 186.986 153.893 186.621 153.996 186.281C154.099 185.941 154.32 185.65 154.62 185.46C155.079 185.146 155.56 184.865 156.06 184.62C156.889 184.205 157.757 183.87 158.65 183.62C159.454 183.328 160.305 183.185 161.16 183.2C161.16 183.28 160.22 183.45 158.76 183.97C157.906 184.267 157.077 184.632 156.28 185.06C155.813 185.295 155.365 185.566 154.94 185.87C154.744 185.988 154.595 186.169 154.517 186.384C154.438 186.599 154.436 186.834 154.51 187.05C154.71 187.42 155.32 187.42 155.83 187.32C156.34 187.22 156.89 187.05 157.38 186.93L160.04 186.28C160.854 186.03 161.692 185.869 162.54 185.8Z" fill="white"/>
<path d="M161.56 188.57C161.186 188.985 160.72 189.306 160.2 189.51C158.989 190.102 157.658 190.407 156.31 190.4H155.72C155.581 190.401 155.445 190.364 155.326 190.291C155.208 190.219 155.112 190.114 155.05 189.99C155.013 189.873 155 189.75 155.012 189.628C155.024 189.506 155.061 189.387 155.12 189.28C155.199 189.116 155.285 188.956 155.38 188.8C155.722 188.275 156.185 187.839 156.73 187.53C157.67 187.02 158.36 187.09 158.35 187.15C157.862 187.353 157.388 187.587 156.93 187.85C156.468 188.163 156.079 188.573 155.79 189.05C155.64 189.3 155.46 189.69 155.52 189.8C155.58 189.91 155.95 189.91 156.31 189.9C158.131 189.81 159.916 189.358 161.56 188.57Z" fill="white"/>
<path d="M152.4 191.49C152.537 190.956 152.707 190.432 152.91 189.92C153.26 188.661 153.332 187.34 153.12 186.05C152.932 184.926 152.521 183.852 151.91 182.89L151.83 182.76L151.92 182.65C152.77 181.65 153.34 181 153.41 181.06C153.11 181.726 152.716 182.345 152.24 182.9V182.66C152.957 183.639 153.433 184.773 153.63 185.97C153.858 187.337 153.727 188.739 153.25 190.04C153.092 190.587 152.8 191.085 152.4 191.49Z" fill="white"/>
<path d="M131.74 189.6L141.66 184.32L148.67 197.8L127.01 211.28L125.5 200.1L131.74 189.6Z" fill="#407BFF"/>
<path d="M141.21 204C141.43 204 153.9 204.15 155.32 205.11C156.64 206.28 157.699 207.714 158.43 209.32C158.58 209.76 159.77 212.67 158.81 213.43C158.093 213.935 157.285 214.295 156.43 214.49C156.687 215.317 156.634 216.209 156.28 217C155.85 217.804 155.174 218.449 154.35 218.84C154.35 218.84 154.2 221.28 153.35 222.09C152.722 222.613 151.945 222.925 151.13 222.98C151.13 222.98 148.9 224.6 147.49 223.57C146.08 222.54 144.07 221.28 144.44 220.62C144.81 219.96 133.44 216.26 132.93 214.41C132.42 212.56 131.93 209.88 131.93 209.88L136.19 202.35L141.21 204Z" fill="#FFBE9D"/>
<path d="M106.3 130C100.17 131.86 98.3 136 95.3 141.5C90.66 150.1 83.55 163.69 79.77 172.43C74.84 183.83 77.09 192.12 81.77 196.89C86.45 201.66 131.32 219.34 131.32 219.34L141.12 202.78L103.05 181C103.05 181 118.35 157.3 119.83 153.93C121.31 150.56 126.49 138.31 115.97 130.88C112.3 128.33 110.29 128.77 106.3 130Z" fill="#407BFF"/>
<path d="M119.83 134.71C118.83 133.87 116.69 130.18 110.83 128.79C107.88 128.08 101.98 130.84 99.91 133.99C95.97 139.99 92.29 144.91 89.4 153.77C86.4 163 88.51 196.52 88.51 196.52L79.37 215.61C79.0912 216.318 78.959 217.076 78.9812 217.836C79.0035 218.597 79.1798 219.346 79.4994 220.036C79.8191 220.727 80.2755 221.346 80.8411 221.855C81.4067 222.365 82.0697 222.754 82.79 223L123.61 234.11C127.274 230.167 129.326 224.993 129.36 219.61L129.45 205.76L133.28 191.63C133.28 191.63 138.67 182.05 138.67 172.86C138.67 163.67 129.1 142.64 127.52 138.69C127.52 138.72 121.09 135.77 119.83 134.71Z" fill="#407BFF"/>
<path d="M118.51 155.61C118.51 155.61 118.45 155.78 118.29 156.11C118.13 156.44 117.89 156.91 117.57 157.53C116.91 158.77 115.91 160.58 114.57 162.9C111.94 167.53 108.05 174.21 103.19 182.43L103.12 182.17L141.3 203.1L141.53 203.23L141.39 203.45L131.6 219.45L131.49 219.63L131.29 219.55L121.6 215.79C114.95 213.16 108.47 210.55 102.26 207.92C96.05 205.29 90.06 202.72 84.59 199.75C83.9011 199.381 83.2334 198.974 82.59 198.53C82.2625 198.31 81.9517 198.066 81.66 197.8L80.86 196.96C79.8625 195.827 79.0155 194.57 78.34 193.22C77.0706 190.623 76.4105 187.771 76.41 184.88C76.4352 182.194 76.8806 179.528 77.73 176.98C78.5447 174.66 79.493 172.39 80.57 170.18C84.42 161.63 87.64 154.76 90.01 150.08C91.19 147.74 92.14 145.94 92.81 144.73L93.58 143.37C93.76 143.06 93.86 142.91 93.86 142.91C93.86 142.91 93.79 143.08 93.63 143.39L92.9 144.78C92.27 146.01 91.34 147.78 90.19 150.17C87.88 154.88 84.71 161.76 80.9 170.33C79.8504 172.536 78.919 174.795 78.11 177.1C77.2895 179.609 76.8611 182.23 76.84 184.87C76.8674 187.693 77.5341 190.472 78.79 193C79.4482 194.312 80.2752 195.532 81.25 196.63C82.2723 197.74 83.4933 198.649 84.85 199.31C90.27 202.25 96.28 204.79 102.47 207.43C108.66 210.07 115.16 212.66 121.81 215.28L131.49 219.05L131.18 219.16L140.98 203.16L141.07 203.51L103 182.5L102.83 182.41L102.93 182.24C107.83 174.04 111.77 167.4 114.45 162.79C115.78 160.5 116.81 158.71 117.52 157.48C117.86 156.86 118.12 156.4 118.29 156.08C118.355 155.92 118.428 155.763 118.51 155.61Z" fill="#1E1E52"/>
<path d="M138.8 171.4C138.873 171.752 138.9 172.111 138.88 172.47C138.88 173.16 138.88 174.16 138.78 175.39C138.466 178.594 137.76 181.747 136.68 184.78C135.45 188.34 134.15 191.47 133.34 193.78C132.53 196.09 132.08 197.54 132 197.52C132.026 197.16 132.093 196.804 132.2 196.46C132.35 195.79 132.63 194.83 132.99 193.66C133.72 191.3 134.99 188.14 136.19 184.66C137.251 181.656 137.995 178.549 138.41 175.39C138.69 172.92 138.71 171.4 138.8 171.4Z" fill="#1E1E52"/>
<path d="M132.44 198.27C132.56 198.33 130.69 202.34 128.26 207.27C126.871 210.258 125.323 213.169 123.62 215.99C124.853 212.92 126.245 209.916 127.79 206.99C129.184 204.003 130.736 201.092 132.44 198.27Z" fill="#1E1E52"/>
<path d="M128.92 213.31C128.92 213.24 129.37 213.15 129.7 213.68C129.797 213.827 129.854 213.996 129.864 214.172C129.875 214.348 129.839 214.523 129.76 214.68C129.646 214.879 129.47 215.037 129.259 215.129C129.049 215.22 128.814 215.242 128.59 215.19C128.365 215.155 128.156 215.052 127.991 214.895C127.827 214.738 127.715 214.533 127.67 214.31C127.639 214.131 127.65 213.948 127.702 213.775C127.754 213.601 127.846 213.442 127.97 213.31C128.39 212.88 128.81 212.98 128.79 213.04C128.77 213.1 128.48 213.18 128.26 213.54C128.183 213.634 128.132 213.746 128.112 213.865C128.092 213.985 128.104 214.108 128.146 214.221C128.189 214.335 128.261 214.435 128.354 214.512C128.448 214.589 128.56 214.64 128.68 214.66C128.801 214.691 128.929 214.685 129.047 214.642C129.165 214.6 129.267 214.522 129.34 214.42C129.387 214.322 129.411 214.214 129.411 214.105C129.411 213.996 129.387 213.888 129.34 213.79C129.23 213.45 128.91 213.38 128.92 213.31Z" fill="#1E1E52"/>
<path d="M142.33 199.49C140.778 197.873 139.435 196.07 138.33 194.12C137.088 192.25 136.08 190.235 135.33 188.12C135.47 188.05 136.85 190.69 138.77 193.81C140.69 196.93 142.45 199.39 142.33 199.49Z" fill="#1E1E52"/>
<path d="M93.9 183.92C93.9 183.92 94.22 183.41 94.96 182.83C95.9346 182.077 97.0398 181.511 98.22 181.16C99.3993 180.808 100.632 180.673 101.86 180.76C102.372 180.753 102.879 180.866 103.34 181.09C101.656 181.072 99.9767 181.264 98.34 181.66C96.7704 182.223 95.2785 182.982 93.9 183.92Z" fill="#1E1E52"/>
<path d="M120.6 147.26C120.52 147.26 120.93 146.31 121.21 144.74C121.59 142.705 121.491 140.61 120.92 138.62C120.32 136.634 119.269 134.813 117.85 133.3C116.76 132.14 115.92 131.58 115.97 131.51C116.784 131.868 117.515 132.389 118.12 133.04C119.665 134.537 120.799 136.407 121.41 138.47C122.017 140.536 122.072 142.726 121.57 144.82C121.417 145.691 121.087 146.522 120.6 147.26Z" fill="#1E1E52"/>
<path d="M82.53 222.7C82.53 222.7 67.32 236.86 79 255.61C90.68 274.36 129.24 314.34 129.24 314.34C129.24 314.34 119.33 345.82 117.56 353.61C115.79 361.4 109.06 383 109.06 383L129.23 389.73C129.23 389.73 163.68 313.78 164.23 310.48C165.23 304.67 163.16 300.92 160.33 296.32C157.5 291.72 123.54 234.76 123.54 234.76L82.53 222.7Z" fill="#1E1E52"/>
<path d="M102.78 316.94C102.78 316.94 81.78 270.82 79.34 267.99C76.9 265.16 65.19 242.52 79.34 227.99L129.58 266.91C129.58 266.91 138.43 313.26 134.89 321.39C131.35 329.52 125.55 334.84 119.43 339.08C113.31 343.32 72.43 379.08 72.43 379.08L57.76 362.81C57.76 362.81 80.96 336.86 86.07 330.61C92.44 322.83 102.78 316.94 102.78 316.94Z" fill="#1E1E52"/>
<path d="M109.06 383C109.06 383 109.06 382.88 109.14 382.65L109.42 381.65C109.68 380.73 110.05 379.41 110.52 377.72C111.52 374.27 112.94 369.32 114.72 363.17C118.32 350.82 123.33 333.67 128.98 314.31L129.04 314.56C126.96 312.28 124.69 309.91 122.43 307.49C107.05 291.1 93.59 275.84 84.85 264C82.65 261.05 80.77 258.3 79.21 255.83C77.8469 253.73 76.6307 251.538 75.57 249.27C74.8873 247.841 74.3609 246.342 74 244.8C73.9123 244.257 73.8523 243.709 73.82 243.16C73.8616 243.297 73.8884 243.438 73.9 243.58C73.96 243.85 73.99 244.26 74.11 244.78C74.5098 246.303 75.0661 247.781 75.77 249.19C76.8624 251.429 78.1018 253.594 79.48 255.67C81.05 258.12 82.95 260.85 85.16 263.78C93.96 275.54 107.46 290.78 122.83 307.08C125.1 309.5 127.35 311.87 129.44 314.16L129.54 314.27V314.41C123.82 333.74 118.76 350.88 115.11 363.22C113.27 369.35 111.79 374.29 110.77 377.72C110.25 379.4 109.85 380.72 109.57 381.63C109.44 382.05 109.33 382.39 109.25 382.63C109.203 382.761 109.139 382.885 109.06 383Z" fill="#407BFF"/>
<path d="M136.17 311.43C135.063 312.074 133.91 312.635 132.72 313.11C131.604 313.743 130.44 314.288 129.24 314.74C130.18 313.84 131.283 313.127 132.49 312.64C133.627 312.004 134.877 311.593 136.17 311.43Z" fill="#407BFF"/>
<path d="M83.44 306C83.44 306.15 74.59 306.26 63.67 306.26C52.75 306.26 43.9 306.1 43.9 306C43.9 305.9 52.75 305.74 63.67 305.74C74.59 305.74 83.44 305.81 83.44 306Z" fill="#1E1E52"/>
<path d="M62 299.93C62 300.07 55.2 300.19 46.81 300.19C38.42 300.19 31.62 300.07 31.62 299.93C31.62 299.79 38.42 299.67 46.81 299.67C55.2 299.67 62 299.79 62 299.93Z" fill="#1E1E52"/>
<path d="M160.29 108.91L168.43 109.91C172.189 114.992 177.713 118.485 183.916 119.701C190.119 120.917 196.552 119.769 201.952 116.482C207.352 113.196 211.326 108.008 213.095 101.939C214.864 95.8709 214.299 89.3601 211.512 83.6869C208.724 78.0137 203.915 73.5884 198.03 71.281C192.145 68.9735 185.61 68.9508 179.709 71.2172C173.808 73.4836 168.968 77.8752 166.141 83.5289C163.314 89.1825 162.703 95.6892 164.43 101.77L160.29 108.91Z" fill="white"/>
<path d="M160.29 108.91L160.54 108.45C160.72 108.13 160.97 107.67 161.3 107.09L164.3 101.69C164.322 101.67 164.35 101.659 164.38 101.659C164.41 101.659 164.438 101.67 164.46 101.69L164.26 101.77C162.813 96.6837 162.99 91.2722 164.768 86.2918C166.546 81.3113 169.835 77.0105 174.176 73.9902C178.517 70.9699 183.693 69.3811 188.98 69.4456C194.268 69.5101 199.404 71.2247 203.67 74.35C207.003 76.7598 209.687 79.9586 211.48 83.66C212.398 85.5172 213.09 87.4779 213.54 89.5C213.962 91.471 214.146 93.4852 214.09 95.5C213.955 101.048 212.006 106.4 208.54 110.734C205.074 115.069 200.283 118.148 194.9 119.5C190.03 120.735 184.902 120.491 180.172 118.799C175.441 117.107 171.322 114.044 168.34 110H168.42L162.33 109.19L160.79 108.98L160.29 108.91H160.85L162.42 109.08L168.42 109.74C168.431 109.735 168.443 109.732 168.455 109.732C168.467 109.732 168.479 109.735 168.49 109.74C171.468 113.727 175.564 116.739 180.257 118.395C184.95 120.051 190.029 120.275 194.85 119.04C198.228 118.169 201.389 116.605 204.131 114.449C206.874 112.292 209.138 109.588 210.78 106.51C212.554 103.107 213.532 99.3459 213.64 95.51C213.777 91.4886 212.903 87.497 211.1 83.9C209.365 80.3707 206.821 77.3007 203.676 74.9393C200.531 72.578 196.873 70.9919 193 70.31C189.567 69.7187 186.049 69.8491 182.669 70.6927C179.289 71.5364 176.122 73.0748 173.37 75.21C168.822 78.7631 165.622 83.7619 164.3 89.38C163.364 93.4519 163.456 97.693 164.57 101.72C164.576 101.749 164.572 101.78 164.557 101.805C164.542 101.831 164.518 101.851 164.49 101.86C164.471 101.874 164.448 101.881 164.425 101.881C164.402 101.881 164.379 101.874 164.36 101.86H164.55C163.19 104.14 162.14 105.86 161.41 107.12L160.59 108.49L160.29 108.91Z" fill="#1E1E52"/>
<path d="M184.67 83.68L186 96.68C186.051 97.1923 186.288 97.6682 186.665 98.0181C187.043 98.3681 187.535 98.5679 188.05 98.58C188.598 98.5911 189.129 98.3886 189.53 98.0154C189.931 97.6421 190.172 97.1273 190.2 96.58L191.14 83.46C191.156 83.226 191.122 82.9914 191.04 82.7715C190.959 82.5516 190.832 82.3514 190.668 82.1842C190.503 82.0169 190.305 81.8864 190.087 81.8013C189.868 81.7161 189.634 81.6782 189.4 81.69L186.23 81.86C186.006 81.871 185.786 81.9276 185.585 82.0264C185.383 82.1251 185.204 82.2639 185.058 82.4342C184.912 82.6046 184.802 82.8029 184.736 83.0171C184.669 83.2313 184.647 83.4569 184.67 83.68Z" fill="#407BFF"/>
<path d="M191.78 105.72C191.605 106.324 191.255 106.863 190.773 107.268C190.292 107.673 189.702 107.926 189.077 107.995C188.452 108.065 187.82 107.947 187.262 107.658C186.704 107.368 186.244 106.92 185.94 106.369C185.637 105.818 185.504 105.189 185.557 104.563C185.611 103.936 185.85 103.34 186.242 102.848C186.635 102.357 187.165 101.994 187.764 101.803C188.364 101.613 189.006 101.605 189.61 101.78C190.012 101.895 190.387 102.088 190.714 102.349C191.041 102.61 191.313 102.932 191.515 103.298C191.717 103.665 191.844 104.067 191.889 104.483C191.935 104.898 191.898 105.319 191.78 105.72Z" fill="#407BFF"/>
</svg>
